<svg preserveAspectRatio="none" width="100%" height="100%" overflow="visible" style="display: block;" viewBox="0 0 12.3613 10.0449" fill="none" xmlns="http://www.w3.org/2000/svg">
<path id="Vector" fill-rule="evenodd" clip-rule="evenodd" d="M3.9512 2.46651C3.30834 2.81651 2.67577 2.54651 2.03292 2.33651C1.54049 2.17651 1.04034 1.65651 0.571058 3.34651C0.481058 3.66651 -0.0113708 5.62651 0.000200646 6.69651C0.00920065 7.54651 0.505486 8.89651 0.595486 9.13651C1.06734 10.4265 1.51863 10.0365 2.00334 9.79651C2.59992 9.52651 3.19263 9.72651 3.78663 9.59651C4.18777 9.49651 4.80492 8.96651 5.00292 5.19651C5.06206 4.05651 5.01577 1.77651 4.95663 0.536514C4.9322 0.0365143 4.86406 -0.153485 4.81134 0.136515C4.55283 1.42976 4.25841 2.22507 3.95249 2.45651L3.9512 2.46651ZM8.41006 2.46651C9.05292 2.81651 9.68549 2.54651 10.3283 2.33651C10.8208 2.17651 11.3209 1.65651 11.7902 3.34651C11.8802 3.66651 12.3726 5.62651 12.3611 6.69651C12.3521 7.54651 11.8558 8.89651 11.7658 9.13651C11.2939 10.4265 10.8426 10.0365 10.3579 9.79651C9.76263 9.52651 9.16992 9.72651 8.57592 9.59651C8.17477 9.49651 7.55763 8.96651 7.35963 5.19651C7.30049 4.05651 7.34677 1.77651 7.40592 0.536514C7.42906 0.0365143 7.49849 -0.153485 7.5512 0.136515C7.80971 1.42976 8.10413 2.22507 8.41006 2.45651V2.46651Z" fill="var(--fill-0, black)" fill-opacity="0.6"/>
</svg>
