<svg preserveAspectRatio="none" width="100%" height="100%" overflow="visible" style="display: block;" viewBox="0 0 11.4286 14.0017" fill="none" xmlns="http://www.w3.org/2000/svg">
<path id="Vector" d="M1.5714 0C0.879968 0 0.285683 2.65 0.0228256 6.45C-0.0543173 7.55 0.0785399 8.3 0.205683 7.57C0.604058 5.38184 1.09954 4.24223 1.60568 4.35C1.51964 5.1352 1.46268 6.05718 1.43988 7.03381C1.41707 8.01044 1.42913 9.01139 1.47497 9.9475C1.52082 10.8836 1.59903 11.7258 1.70264 12.3991C1.80624 13.0723 1.93203 13.5558 2.0688 13.8063C2.20556 14.0568 2.34906 14.0666 2.4865 13.8349C2.62394 13.6032 2.75106 13.1371 2.85653 12.4782C2.962 11.8193 3.04255 10.988 3.09101 10.0583C3.13947 9.12867 3.15432 8.12957 3.13425 7.15C3.13525 6.89797 3.12944 6.6469 3.11711 6.41L3.09568 6.03C3.04855 5.07883 2.96798 4.22598 2.8614 3.55C2.55711 1.32 2.0714 0 1.5714 0ZM9.85711 0C9.16568 0 8.5714 2.65 8.30854 6.45C8.2314 7.55 8.36425 8.3 8.4914 7.57C8.88977 5.38184 9.38525 4.24223 9.8914 4.35C9.80536 5.1352 9.7484 6.05718 9.72559 7.03381C9.70278 8.01044 9.71484 9.01139 9.76069 9.9475C9.80653 10.8836 9.88474 11.7258 9.98835 12.3991C10.092 13.0723 10.2177 13.5558 10.3545 13.8063C10.4913 14.0568 10.6348 14.0666 10.7722 13.8349C10.9097 13.6032 11.0368 13.1371 11.1422 12.4782C11.2477 11.8193 11.3283 10.988 11.3767 10.0583C11.4252 9.12867 11.44 8.12957 11.42 7.15C11.421 6.89797 11.4152 6.6469 11.4028 6.41L11.3814 6.03C11.3343 5.07883 11.2537 4.22598 11.1471 3.55C10.8428 1.32 10.3571 0 9.85711 0Z" fill="var(--fill-0, black)" fill-opacity="0.6"/>
</svg>
