<svg preserveAspectRatio="none" width="100%" height="100%" overflow="visible" style="display: block;" viewBox="0 0 2.56673 17.8374" fill="none" xmlns="http://www.w3.org/2000/svg">
<path id="Vector" fill-rule="evenodd" clip-rule="evenodd" d="M1.33371 9.10595C1.33371 9.10595 1.86085 17.306 1.38514 17.816C0.907995 18.336 1.17657 9.22595 1.17657 9.22595C1.17657 9.22595 0.160852 15.226 0.0122804 12.256C-0.136291 9.27595 1.11228 8.20595 1.11228 8.20595C1.11228 8.20595 -0.0277185 3.50595 0.34371 1.37595C0.71371 -0.774046 1.23085 7.46595 1.23085 7.46595C1.23085 7.46595 1.508 -1.45405 1.91942 0.205954C2.33085 1.87595 1.368 8.02595 1.368 8.02595C1.368 8.02595 2.63657 7.02595 2.56371 10.376C2.49228 13.716 1.33514 9.10595 1.33514 9.10595H1.33371Z" fill="var(--fill-0, white)"/>
</svg>
