<svg preserveAspectRatio="none" width="100%" height="100%" overflow="visible" style="display: block;" viewBox="0 0 25.8345 251.046" fill="none" xmlns="http://www.w3.org/2000/svg">
<path id="Vector" d="M3.47143 97.9472C4.86771 75.2472 7.929 66.3472 10.5994 58.5872C12.312 53.6172 13.8639 49.1072 14.7137 41.7272C14.9991 43.7472 15.3244 45.7772 15.6664 47.9272C16.9791 56.1072 18.5413 65.8572 19.1571 82.9472V83.1172C19.4705 83.5297 19.7598 84.6848 19.9856 86.4246C20.2113 88.1643 20.3625 90.4039 20.4184 92.8372V70.9872C20.4184 69.6872 20.412 68.4172 20.3991 67.1472C20.9829 50.1472 20.0006 29.3672 18.7714 19.9472C17.5526 11.1272 15.9043 7.62716 14.7921 11.4672C13.3007 -6.07284 8.98714 -1.81284 6.42857 12.9472C4.72886 22.7472 3.24129 38.6672 2.84914 58.6972C2.74989 62.0761 2.69986 65.5312 2.7 68.9972V157.497C2.67429 188.997 1.74857 239.987 0 247.947C8.01771 264.747 9.24814 209.797 8.87143 165.947V165.557C7.73626 161.368 6.7617 154.943 6.04448 146.919C5.32726 138.896 4.89232 129.552 4.78286 119.817C4.41782 119.386 4.08475 117.952 3.84411 115.774C3.60348 113.596 3.47125 110.819 3.47143 107.947V97.9472ZM15.0429 165.557C16.178 161.368 17.1526 154.943 17.8698 146.919C18.587 138.896 19.022 129.552 19.1314 119.817C19.4502 119.44 19.7457 118.296 19.9765 116.545C20.2074 114.795 20.3619 112.526 20.4184 110.057V111.417C20.4186 127.248 20.902 142.853 21.8289 156.947L25.2939 209.657C25.7219 216.111 25.9018 223.388 25.8119 230.617C25.7221 237.846 25.3664 244.72 24.7873 250.417C24.6082 232.332 23.558 215.439 21.8468 203.116C20.1355 190.792 17.8893 183.946 15.5571 183.947H15.0429V165.557Z" fill="var(--fill-0, #D6B370)"/>
</svg>
