<svg preserveAspectRatio="none" width="100%" height="100%" overflow="visible" style="display: block;" viewBox="0 0 17.7429 117.01" fill="none" xmlns="http://www.w3.org/2000/svg">
<path id="Vector" d="M2.91472 0H1.57194e-06V112.91C-0.000167535 113.448 0.0133092 113.981 0.0396603 114.478C0.0660113 114.976 0.104719 115.428 0.153566 115.809C0.202413 116.189 0.260441 116.492 0.324325 116.698C0.388209 116.904 0.456693 117.01 0.525858 117.01C0.839784 117.01 1.15063 116.529 1.44063 115.594C1.73063 114.659 1.99409 113.288 2.21595 111.561C2.43781 109.834 2.61371 107.783 2.73361 105.526C2.85351 103.27 2.91505 100.852 2.91472 98.41V0ZM17.7429 0H14.8281V112.91C14.828 113.448 14.8415 113.981 14.8678 114.478C14.8942 114.976 14.9329 115.428 14.9817 115.809C15.0306 116.189 15.0886 116.492 15.1525 116.698C15.2164 116.904 15.2848 117.01 15.354 117.01C15.668 117.01 15.979 116.528 16.2691 115.593C16.5592 114.657 16.8227 113.286 17.0445 111.557C17.2664 109.829 17.4423 107.777 17.5621 105.519C17.6819 103.262 17.7434 100.842 17.7429 98.4V0Z" fill="var(--fill-0, #F4F4F4)"/>
</svg>
