<svg preserveAspectRatio="none" width="100%" height="100%" overflow="visible" style="display: block;" viewBox="0 0 28.5714 244.01" fill="none" xmlns="http://www.w3.org/2000/svg">
<path id="Vector" d="M14.2857 0C12.164 0 10.1292 5.89998 8.62886 16.402C7.12857 26.9041 6.28571 41.1479 6.28571 56V62.17C5.88631 62.6426 5.52372 64.0899 5.26222 66.2554C5.00072 68.4208 4.85722 71.1645 4.85714 74V88C4.85711 90.8882 5.00589 93.6797 5.27618 95.8619C5.54647 98.0442 5.92013 99.4708 6.32857 99.88C6.47288 109.427 6.96512 118.554 7.7581 126.386C8.55107 134.219 9.61819 140.494 10.8571 144.61V163.01H10.2857C7.55777 163.01 4.94156 170.596 3.01262 184.098C1.08367 197.601 0 215.914 0 235.01V244.01H28.5714V235.01C28.5714 215.914 27.4878 197.601 25.5588 184.098C23.6299 170.596 21.0137 163.01 18.2857 163.01H17.7143V144.62C18.9532 140.504 20.0204 134.229 20.8133 126.396C21.6063 118.564 22.0985 109.437 22.2429 99.89C22.6515 99.4806 23.0254 98.0525 23.2957 95.8682C23.566 93.6838 23.7147 90.89 23.7143 88V74C23.7142 71.1645 23.5707 68.4208 23.3092 66.2554C23.0477 64.0899 22.6851 62.6426 22.2857 62.17V56C22.2857 41.1479 21.4429 26.9041 19.9426 16.402C18.4423 5.89998 16.4074 0 14.2857 0Z" fill="var(--fill-0, #FD9841)"/>
</svg>
