<svg preserveAspectRatio="none" width="100%" height="100%" overflow="visible" style="display: block;" viewBox="0 0 11.4286 28" fill="none" xmlns="http://www.w3.org/2000/svg">
<path id="Vector" d="M4 14C4 17.713 3.78929 21.274 3.41421 23.8995C3.03914 26.525 2.53043 28 2 28C1.46957 28 0.960859 26.525 0.585787 23.8995C0.210714 21.274 0 17.713 0 14C0 10.287 0.210714 6.72601 0.585787 4.1005C0.960859 1.475 1.46957 0 2 0C2.53043 0 3.03914 1.475 3.41421 4.1005C3.78929 6.72601 4 10.287 4 14ZM11.4286 14C11.4286 17.713 11.2179 21.274 10.8428 23.8995C10.4677 26.525 9.959 28 9.42857 28C8.89814 28 8.38943 26.525 8.01436 23.8995C7.63929 21.274 7.42857 17.713 7.42857 14C7.42857 10.287 7.63929 6.72601 8.01436 4.1005C8.38943 1.475 8.89814 0 9.42857 0C9.959 0 10.4677 1.475 10.8428 4.1005C11.2179 6.72601 11.4286 10.287 11.4286 14Z" fill="var(--fill-0, white)"/>
</svg>
