<svg preserveAspectRatio="none" width="100%" height="100%" overflow="visible" style="display: block;" viewBox="0 0 25.7143 244.01" fill="none" xmlns="http://www.w3.org/2000/svg">
<path id="Vector" d="M12.8571 0C10.9476 0 9.11624 5.89998 7.76597 16.402C6.41571 26.9041 5.65714 41.1479 5.65714 56V62.17C5.29768 62.6426 4.97135 64.0899 4.736 66.2554C4.50065 68.4208 4.37149 71.1645 4.37143 74V88C4.3714 90.8882 4.5053 93.6797 4.74856 95.8619C4.99182 98.0442 5.32811 99.4708 5.69571 99.88C5.8256 109.427 6.26861 118.554 6.98229 126.386C7.69597 134.219 8.65637 140.494 9.77143 144.61V163.01H9.25714C6.802 163.01 4.4474 170.596 2.71135 184.098C0.975303 197.601 0 215.914 0 235.01V244.01H25.7143V235.01C25.7143 215.914 24.739 197.601 23.0029 184.098C21.2669 170.596 18.9123 163.01 16.4571 163.01H15.9429V144.62C17.0579 140.504 18.0183 134.229 18.732 126.396C19.4457 118.564 19.8887 109.437 20.0186 99.89C20.3864 99.4806 20.7229 98.0525 20.9661 95.8682C21.2094 93.6838 21.3432 90.89 21.3429 88V74C21.3428 71.1645 21.2136 68.4208 20.9783 66.2554C20.7429 64.0899 20.4166 62.6426 20.0571 62.17V56C20.0571 41.1479 19.2986 26.9041 17.9483 16.402C16.598 5.89998 14.7667 0 12.8571 0Z" fill="var(--fill-0, #D08B5B)"/>
</svg>
