<svg preserveAspectRatio="none" width="100%" height="100%" overflow="visible" style="display: block;" viewBox="0 0 2 14.1511" fill="none" xmlns="http://www.w3.org/2000/svg">
<path id="Vector" fill-rule="evenodd" clip-rule="evenodd" d="M1.40663 12.2755C1.41505 12.4612 1.418 12.6569 1.4153 12.8508C1.4126 13.0447 1.4043 13.2328 1.39092 13.4036C1.37754 13.5744 1.35934 13.7244 1.33743 13.8446C1.31553 13.9647 1.29037 14.0525 1.26347 14.1026C1.23658 14.1527 1.20851 14.1641 1.18097 14.1361C1.15343 14.1081 1.12699 14.0412 1.10324 13.9396C1.0795 13.838 1.05895 13.7037 1.04283 13.5449C1.02672 13.386 1.01538 13.206 1.00949 13.0155C0.98092 12.2455 0.995206 7.07554 0.995206 7.07554C0.995206 7.07554 0.638064 11.6055 0.558064 12.1755C0.519228 12.4447 0.466707 12.5949 0.412054 12.593C0.3574 12.5912 0.305091 12.4374 0.266635 12.1655C0.228179 11.8937 0.206725 11.526 0.206993 11.1435C0.207261 10.7609 0.229229 10.3947 0.268064 10.1255C0.348064 9.56554 0.996635 7.07554 0.996635 7.07554C0.996635 7.07554 0.258063 7.17554 0.148063 6.97554C0.0963934 6.86995 0.0526937 6.62679 0.0263407 6.29825C-1.22444e-05 5.96971 -0.00691882 5.58195 0.00710158 5.21816C0.021122 4.85438 0.0549532 4.54356 0.101337 4.35238C0.14772 4.1612 0.20296 4.10489 0.255206 4.19554C0.365206 4.39554 0.996635 7.07554 0.996635 7.07554C0.996635 7.07554 0.613777 2.65554 0.585206 1.87554C0.576788 1.68985 0.573841 1.49414 0.576542 1.30024C0.579243 1.10635 0.587536 0.918306 0.60092 0.747498C0.614304 0.57669 0.6325 0.426669 0.654407 0.306514C0.676313 0.186358 0.701475 0.098567 0.728369 0.048455C0.755263 -0.00165702 0.78333 -0.0130473 0.810871 0.0149715C0.838413 0.0429903 0.864856 0.109837 0.8886 0.211465C0.912343 0.313092 0.932894 0.447387 0.949008 0.606223C0.965122 0.765059 0.976465 0.945131 0.98235 1.13554C1.01092 1.90554 0.996635 7.07554 0.996635 7.07554C0.996635 7.07554 1.35378 2.54554 1.43235 1.97554C1.47118 1.70502 1.52378 1.55357 1.57857 1.55451C1.63336 1.55544 1.68585 1.7087 1.72449 1.98054C1.76314 2.25239 1.78477 2.62056 1.78464 3.00408C1.78451 3.38759 1.76261 3.75502 1.72378 4.02554C1.64378 4.58554 0.995206 7.07554 0.995206 7.07554C0.995206 7.07554 1.73378 6.97554 1.84378 7.17554C1.87034 7.22163 1.89533 7.30438 1.91727 7.41892C1.93921 7.53346 1.95767 7.6775 1.97155 7.8426C1.98544 8.00769 1.99448 8.19053 1.99815 8.3804C2.00181 8.57027 2.00003 8.76335 1.9929 8.94833C1.98577 9.1333 1.97344 9.30646 1.95663 9.45766C1.93982 9.60886 1.91887 9.73506 1.895 9.82886C1.87114 9.92266 1.84484 9.98218 1.81764 10.0039C1.79045 10.0257 1.76291 10.0092 1.73664 9.95554C1.62664 9.75554 0.995206 7.07554 0.995206 7.07554C0.995206 7.07554 1.37663 11.4955 1.40663 12.2755Z" fill="var(--fill-0, white)"/>
</svg>
