<svg preserveAspectRatio="none" width="100%" height="100%" overflow="visible" style="display: block;" viewBox="0 0 14 14" fill="none" xmlns="http://www.w3.org/2000/svg">
<g id="Icon" clip-path="url(#clip0_9_237)">
<path id="Vector" d="M10.5 2.33333H3.5C2.85567 2.33333 2.33333 2.85567 2.33333 3.5V10.5C2.33333 11.1443 2.85567 11.6667 3.5 11.6667H10.5C11.1443 11.6667 11.6667 11.1443 11.6667 10.5V3.5C11.6667 2.85567 11.1443 2.33333 10.5 2.33333Z" stroke="var(--stroke-0, #FB2C36)" stroke-width="1.16667" stroke-linecap="round" stroke-linejoin="round"/>
<path id="Vector_2" d="M8.16667 5.25H5.83333C5.51117 5.25 5.25 5.51117 5.25 5.83333V8.16667C5.25 8.48883 5.51117 8.75 5.83333 8.75H8.16667C8.48883 8.75 8.75 8.48883 8.75 8.16667V5.83333C8.75 5.51117 8.48883 5.25 8.16667 5.25Z" stroke="var(--stroke-0, #FB2C36)" stroke-width="1.16667" stroke-linecap="round" stroke-linejoin="round"/>
<path id="Vector_3" d="M8.75 1.16667V2.33333" stroke="var(--stroke-0, #FB2C36)" stroke-width="1.16667" stroke-linecap="round" stroke-linejoin="round"/>
<path id="Vector_4" d="M8.75 11.6667V12.8333" stroke="var(--stroke-0, #FB2C36)" stroke-width="1.16667" stroke-linecap="round" stroke-linejoin="round"/>
<path id="Vector_5" d="M1.16667 8.75H2.33333" stroke="var(--stroke-0, #FB2C36)" stroke-width="1.16667" stroke-linecap="round" stroke-linejoin="round"/>
<path id="Vector_6" d="M1.16667 5.25H2.33333" stroke="var(--stroke-0, #FB2C36)" stroke-width="1.16667" stroke-linecap="round" stroke-linejoin="round"/>
<path id="Vector_7" d="M11.6667 8.75H12.8333" stroke="var(--stroke-0, #FB2C36)" stroke-width="1.16667" stroke-linecap="round" stroke-linejoin="round"/>
<path id="Vector_8" d="M11.6667 5.25H12.8333" stroke="var(--stroke-0, #FB2C36)" stroke-width="1.16667" stroke-linecap="round" stroke-linejoin="round"/>
<path id="Vector_9" d="M5.25 1.16667V2.33333" stroke="var(--stroke-0, #FB2C36)" stroke-width="1.16667" stroke-linecap="round" stroke-linejoin="round"/>
<path id="Vector_10" d="M5.25 11.6667V12.8333" stroke="var(--stroke-0, #FB2C36)" stroke-width="1.16667" stroke-linecap="round" stroke-linejoin="round"/>
</g>
<defs>
<clipPath id="clip0_9_237">
<rect width="14" height="14" fill="white"/>
</clipPath>
</defs>
</svg>
