<svg preserveAspectRatio="none" width="100%" height="100%" overflow="visible" style="display: block;" viewBox="0 0 20.5714 82.0043" fill="none" xmlns="http://www.w3.org/2000/svg">
<path id="Vector" d="M19.4286 0H19.1429V56.06C18.8163 56.3156 18.5161 57.4368 18.3039 59.1933C18.0917 60.9498 17.9837 63.2084 18.002 65.5051C18.0203 67.8017 18.1635 69.9623 18.4022 71.5429C18.641 73.1235 18.9571 74.0043 19.2857 74.0043C19.6143 74.0043 19.9305 73.1235 20.1692 71.5429C20.4079 69.9623 20.5512 67.8017 20.5694 65.5051C20.5877 63.2084 20.4797 60.9498 20.2675 59.1933C20.0553 57.4368 19.7551 56.3156 19.4286 56.06V0ZM1.42857 8H1.14286V64.06C0.816285 64.3156 0.516087 65.4368 0.303916 67.1933C0.0917459 68.9498 -0.0162909 71.2084 0.00199341 73.5051C0.0202777 75.8017 0.163496 77.9623 0.402234 79.5429C0.640972 81.1235 0.957108 82.0043 1.28572 82.0043C1.61432 82.0043 1.93046 81.1235 2.1692 79.5429C2.40794 77.9623 2.55115 75.8017 2.56944 73.5051C2.58772 71.2084 2.47969 68.9498 2.26752 67.1933C2.05534 65.4368 1.75515 64.3156 1.42857 64.06V8Z" fill="var(--fill-0, #F4F4F4)"/>
</svg>
