<svg preserveAspectRatio="none" width="100%" height="100%" overflow="visible" style="display: block;" viewBox="0 0 13.7604 14" fill="none" xmlns="http://www.w3.org/2000/svg">
<g id="Icon">
<path id="Vector" d="M3.4401 1.83984V8.72005" stroke="var(--stroke-0, #717182)" stroke-width="1.1467" stroke-linecap="round" stroke-linejoin="round"/>
<path id="Vector_2" d="M10.3203 5.27995C11.2703 5.27995 12.0404 4.50985 12.0404 3.5599C12.0404 2.60994 11.2703 1.83984 10.3203 1.83984C9.37035 1.83984 8.60026 2.60994 8.60026 3.5599C8.60026 4.50985 9.37035 5.27995 10.3203 5.27995Z" stroke="var(--stroke-0, #717182)" stroke-width="1.1467" stroke-linecap="round" stroke-linejoin="round"/>
<path id="Vector_3" d="M3.4401 12.1602C4.39006 12.1602 5.16016 11.3901 5.16016 10.4401C5.16016 9.49015 4.39006 8.72005 3.4401 8.72005C2.49015 8.72005 1.72005 9.49015 1.72005 10.4401C1.72005 11.3901 2.49015 12.1602 3.4401 12.1602Z" stroke="var(--stroke-0, #717182)" stroke-width="1.1467" stroke-linecap="round" stroke-linejoin="round"/>
<path id="Vector_4" d="M10.3203 5.27995C10.3203 6.64851 9.77666 7.96101 8.80894 8.92873C7.84122 9.89645 6.52871 10.4401 5.16016 10.4401" stroke="var(--stroke-0, #717182)" stroke-width="1.1467" stroke-linecap="round" stroke-linejoin="round"/>
</g>
</svg>
