<svg preserveAspectRatio="none" width="100%" height="100%" overflow="visible" style="display: block;" viewBox="0 0 21.4301 173.023" fill="none" xmlns="http://www.w3.org/2000/svg">
<path id="Vector" d="M2.8578 86.1917V85.9617L2.86923 86.0217C3.11209 58.5717 5.4178 52.8217 7.51352 47.6117C9.0178 43.8617 10.4135 40.3917 10.8564 29.3617C11.3021 40.3917 12.6978 43.8617 14.2021 47.6117C16.2978 52.8317 18.6049 58.5717 18.8449 86.0217L18.8592 85.9617V86.1917C19.2193 86.6203 19.5505 87.8429 19.8044 89.6813C20.0583 91.5197 20.2216 93.8778 20.2707 96.4117C20.5575 94.14 20.749 91.357 20.8239 88.3707C20.8988 85.3845 20.8541 82.3114 20.6949 79.4917C20.9545 77.7694 21.1546 75.6561 21.2802 73.312C21.4057 70.9678 21.4533 68.4544 21.4195 65.9622C21.3856 63.47 21.2711 61.0645 21.0847 58.9281C20.8983 56.7917 20.6448 54.9804 20.3435 53.6317C20.4924 51.4462 20.5708 49.0582 20.573 46.6369C20.5753 44.2157 20.5014 41.8207 20.3566 39.6218C20.2118 37.4228 19.9997 35.4739 19.7352 33.9133C19.4708 32.3527 19.1605 31.2187 18.8264 30.5917C18.9032 27.0353 18.845 23.4001 18.6577 20.051C18.4703 16.7019 18.1604 13.7567 17.759 11.5113C17.3576 9.26595 16.8789 7.79933 16.3709 7.25876C15.8629 6.71819 15.3435 7.1227 14.8649 8.43166C14.4183 4.13549 13.7505 1.22337 13.0027 0.310838C12.2549 -0.601693 11.4858 0.556879 10.8578 3.54166C10.2302 0.554813 9.46123 -0.606977 8.71348 0.30179C7.96573 1.21056 7.29773 4.11869 6.85066 8.41166C6.37207 7.1027 5.85271 6.69819 5.34472 7.23876C4.83674 7.77933 4.35801 9.24595 3.95661 11.4913C3.55521 13.7367 3.24528 16.6819 3.05792 20.031C2.87057 23.3801 2.81239 27.0153 2.88923 30.5717C2.56636 31.1766 2.26556 32.2553 2.00679 33.7362C1.74802 35.217 1.5372 37.0662 1.38832 39.1609C1.23944 41.2556 1.1559 43.548 1.14325 45.886C1.1306 48.224 1.18913 50.5541 1.31494 52.7217C0.952267 53.9731 0.641679 55.8566 0.413035 58.1911C0.184391 60.5256 0.045381 63.2325 0.00936822 66.0517C-0.0266446 68.8709 0.0415507 71.7075 0.207398 74.2889C0.373246 76.8703 0.631169 79.1096 0.956373 80.7917C0.841622 83.47 0.825993 86.3086 0.910955 89.0409C0.995916 91.7732 1.17868 94.3095 1.44209 96.4117C1.49135 93.8735 1.65534 91.5123 1.91007 89.6734C2.1648 87.8345 2.4969 86.6145 2.8578 86.1917ZM2.88637 122.892C2.33637 122.312 1.87066 119.892 1.62209 116.552C1.39372 118.66 1.24113 121.122 1.17718 123.729C1.11323 126.337 1.1398 129.014 1.25465 131.535C1.3695 134.055 1.56926 136.346 1.83708 138.213C2.10491 140.08 2.43294 141.468 2.79352 142.262C2.70436 144.609 2.69027 147.066 2.75226 149.456C2.81425 151.847 2.95078 154.112 3.15214 156.091C3.3535 158.069 3.61473 159.713 3.9172 160.904C4.21968 162.095 4.55596 162.804 4.90209 162.982C5.10735 166.354 5.46717 169.151 5.92477 170.933C6.38237 172.715 6.9117 173.379 7.42923 172.822V168.622C6.16794 164.433 5.08509 158.008 4.28817 149.984C3.49126 141.96 3.008 132.617 2.88637 122.882V122.892ZM14.2864 168.632V172.832C14.8041 173.389 15.3335 172.723 15.7912 170.939C16.2488 169.155 16.6085 166.356 16.8135 162.982C17.1597 162.808 17.4961 162.1 17.7987 160.911C18.1013 159.721 18.3627 158.079 18.5641 156.1C18.7655 154.122 18.9021 151.857 18.9639 149.466C19.0258 147.076 19.0115 144.619 18.9221 142.272C19.2829 141.479 19.6112 140.09 19.8792 138.222C20.1472 136.355 20.347 134.063 20.4619 131.541C20.5768 129.019 20.6033 126.34 20.5392 123.731C20.475 121.123 20.3222 118.66 20.0935 116.552C19.8449 119.892 19.3792 122.312 18.8278 122.892C18.7061 132.624 18.2229 141.964 17.4263 149.986C16.6296 158.008 15.5472 164.432 14.2864 168.622V168.632Z" fill="var(--fill-0, #F59797)"/>
</svg>
