<svg preserveAspectRatio="none" width="100%" height="100%" overflow="visible" style="display: block;" viewBox="0 0 12.5478 11.8024" fill="none" xmlns="http://www.w3.org/2000/svg">
<path id="Vector" d="M0.506752 11.0797C1.06675 5.56972 2.59961 2.47972 3.92104 4.74972C3.95817 4.82785 3.99718 4.85228 4.0357 4.82151C4.07421 4.79073 4.11144 4.70541 4.14509 4.57072C4.17875 4.43604 4.20814 4.25482 4.23148 4.03808C4.25481 3.82135 4.2716 3.57364 4.28082 3.31005C4.29004 3.04645 4.2915 2.77247 4.28511 2.5048C4.27872 2.23712 4.26461 1.98135 4.24365 1.75305C4.22269 1.52476 4.19531 1.32871 4.16318 1.17685C4.13105 1.02499 4.09484 0.920491 4.05675 0.869718C2.52247 -1.77028 0.746752 1.80972 0.0410377 8.76972C0.00374257 9.20269 -0.00874281 9.71847 0.00609373 10.2133C0.0209303 10.7081 0.0619877 11.1452 0.121005 11.4367C0.180022 11.7281 0.252618 11.8523 0.324187 11.7842C0.395756 11.7161 0.460986 11.4609 0.506752 11.0697V11.0797ZM12.041 11.0797C11.4825 5.56972 9.94818 2.47972 8.62675 4.74972C8.58962 4.82785 8.55061 4.85228 8.51209 4.82151C8.47358 4.79073 8.43635 4.70541 8.4027 4.57072C8.36904 4.43604 8.33965 4.25482 8.31632 4.03808C8.29298 3.82135 8.2762 3.57364 8.26698 3.31005C8.25776 3.04645 8.25629 2.77247 8.26268 2.5048C8.26907 2.23712 8.28318 1.98135 8.30414 1.75305C8.3251 1.52476 8.35248 1.32871 8.38461 1.17685C8.41674 1.02499 8.45295 0.920491 8.49104 0.869718C10.0253 -1.77028 11.801 1.80972 12.5068 8.76972C12.544 9.20269 12.5565 9.71847 12.5417 10.2133C12.5269 10.7081 12.4858 11.1452 12.4268 11.4367C12.3678 11.7281 12.2952 11.8523 12.2236 11.7842C12.152 11.7161 12.0868 11.4609 12.041 11.0697V11.0797Z" fill="var(--fill-0, black)" fill-opacity="0.6"/>
</svg>
