<svg preserveAspectRatio="none" width="100%" height="100%" overflow="visible" style="display: block;" viewBox="0 0 9.25714 18" fill="none" xmlns="http://www.w3.org/2000/svg">
<path id="Vector" d="M1.86429 17.7L1.15714 12.2L0.45 17.7C0.398572 18.1 0.308571 18.1 0.244286 17.7L0.0385714 16.1C-0.0128571 15.7 -0.0128571 15 0.0385714 14.5L0.745714 9L0.0385714 3.5C-0.0128571 3 -0.0128571 2.3 0.0385714 1.9L0.244286 0.3C0.295714 -0.1 0.385714 -0.1 0.45 0.3L1.15714 5.8L1.86429 0.3C1.91571 -0.1 2.00571 -0.1 2.07 0.3L2.27571 1.9C2.32714 2.3 2.32714 3 2.27571 3.5L1.56857 9L2.27571 14.5C2.32714 14.9 2.32714 15.6 2.27571 16.1L2.07 17.7C2.01857 18.1 1.92857 18.1 1.86429 17.7ZM8.80714 17.7L8.1 12.2L7.39286 17.7C7.34143 18.1 7.25143 18.1 7.18714 17.7L6.98143 16.1C6.93 15.7 6.93 15 6.98143 14.5L7.68857 9L6.98143 3.5C6.93 3 6.93 2.3 6.98143 1.9L7.18714 0.3C7.23857 -0.1 7.32857 -0.1 7.39286 0.3L8.1 5.8L8.80714 0.3C8.85857 -0.1 8.94857 -0.1 9.01286 0.3L9.21857 1.9C9.27 2.3 9.27 3 9.21857 3.5L8.51143 9L9.21857 14.5C9.27 14.9 9.27 15.6 9.21857 16.1L9.01286 17.7C8.96143 18.1 8.87143 18.1 8.80714 17.7Z" fill="var(--fill-0, black)" fill-opacity="0.6"/>
</svg>
