<svg preserveAspectRatio="none" width="100%" height="100%" overflow="visible" style="display: block;" viewBox="0 0 18.6386 72.2872" fill="none" xmlns="http://www.w3.org/2000/svg">
<path id="Vector" fill-rule="evenodd" clip-rule="evenodd" d="M14.6658 26.2392C14.6086 26.3592 14.5558 26.5092 14.5043 26.6892C14.48 26.1892 14.45 25.6892 14.4158 25.2092C14.9472 21.5792 15.1658 15.6692 15.1658 15.6692C15.1658 15.6692 15 15.8692 14.7229 16.3092C14.6843 16.3492 14.1829 16.9092 13.5458 18.6192C13.4315 18.0392 13.3257 17.5792 13.2457 17.2392C13.32 14.3092 13.4858 4.67917 12.6086 1.12917C11.7372 -2.41083 10.6372 3.32917 10.3058 5.26917L10.2057 4.84917C9.76718 3.07917 8.66718 -0.50083 7.91289 4.61917C7.10718 10.0792 7.58289 18.6192 7.76432 21.3192L7.68575 21.8492C7.54006 20.7565 7.34906 20.0115 7.13966 19.7191C6.93027 19.4266 6.71305 19.6016 6.51861 20.2192L6.21432 21.1492L6.01718 19.2692C5.88538 18.0078 5.69882 17.0788 5.48536 16.621C5.2719 16.1632 5.04302 16.2011 4.83289 16.7292C4.44861 17.6692 4.19147 19.9292 4.14718 22.7792L4.11004 25.0992L3.77861 25.3492C3.58368 25.4833 3.39843 26.0085 3.24511 26.8618C3.09179 27.715 2.97693 28.86 2.91432 30.1592C2.85873 31.2355 2.8405 32.3889 2.86111 33.5243C2.88173 34.6596 2.94061 35.7444 3.03289 36.6892C2.90513 36.4022 2.76731 36.4234 2.64146 36.7492C2.68004 36.3492 2.71004 35.9792 2.72575 35.6192C2.78334 34.2997 2.76369 32.8742 2.67113 31.6561C2.57857 30.4381 2.42067 29.5273 2.23218 29.1242C2.04369 28.721 1.84004 28.8586 1.66603 29.5065C1.49202 30.1545 1.36191 31.2597 1.30432 32.5792C1.29004 32.9392 1.28289 33.3792 1.28432 33.8492C1.24146 33.4692 1.20004 33.1492 1.15575 32.9392C0.994222 32.1832 0.796807 31.9003 0.605833 32.1512C0.41486 32.4021 0.245532 33.1668 0.134154 34.2813C0.0227756 35.3958 -0.0217852 36.7715 0.0100255 38.1133C0.0418363 39.4551 0.147485 40.6562 0.304322 41.4592C0.347179 41.6692 0.404322 41.8392 0.470037 41.9892C0.405751 42.1392 0.350037 42.3292 0.30718 42.5492C0.228682 42.9579 0.162568 43.4718 0.112678 44.0609C0.0627879 44.65 0.0301164 45.3026 0.0165596 45.9809C0.00300272 46.6591 0.00883045 47.3495 0.0337061 48.0118C0.0585817 48.6741 0.102009 49.2953 0.161465 49.8392C0.219729 50.3883 0.29301 50.8509 0.377046 51.2C0.461082 51.5491 0.554196 51.7778 0.650971 51.8727C0.747746 51.9676 0.846251 51.9269 0.940757 51.7529C1.03526 51.5789 1.12388 51.2751 1.20147 50.8592C1.24432 50.6392 1.28432 50.3092 1.32432 49.9292C1.32432 50.3992 1.33432 50.8292 1.35147 51.1792C1.41838 52.4581 1.55431 53.5022 1.73004 54.0871C1.90576 54.6719 2.10725 54.7508 2.2912 54.3067C2.47514 53.8627 2.62685 52.9311 2.71372 51.7124C2.80059 50.4937 2.81568 49.085 2.75575 47.7892C2.73426 47.3935 2.7044 47.0228 2.66718 46.6892C2.73146 46.8392 2.79289 46.9092 2.84575 46.9092C3.02319 46.8863 3.19354 46.4178 3.32575 45.5892C3.34948 47.2735 3.45721 48.8455 3.63004 50.0292C3.77649 51.0789 3.96554 51.7879 4.17152 52.0598C4.3775 52.3317 4.59045 52.1535 4.78147 51.5492L5.08575 50.6192L5.28289 52.4992C5.32432 52.8792 5.36861 53.2392 5.41718 53.5492C5.34289 54.0592 5.26575 54.5492 5.18289 54.9892C5.11575 54.6892 5.02289 54.2892 4.90861 53.9292C4.60301 52.8807 4.25969 52.4939 3.92252 52.8181C3.58535 53.1422 3.26965 54.1627 3.01575 55.7492C2.45147 59.3392 2.22004 65.5792 2.22004 65.5792C2.22004 65.5792 3.27289 69.7492 4.40004 65.9992C5.24289 63.1992 5.33289 58.7792 5.32575 56.7392C5.43718 56.0992 5.54575 55.4092 5.64861 54.6692C5.77422 55.1136 5.91143 55.3747 6.0519 55.4366C6.19237 55.4985 6.33317 55.3599 6.46575 55.0292C6.65108 54.5893 6.81434 53.7846 6.93597 52.7115C7.0576 51.6384 7.13242 50.3425 7.15147 48.9792L7.18861 46.6592L7.52004 46.3992C7.67304 46.2954 7.82068 45.9498 7.95183 45.3886C8.08298 44.8274 8.19423 44.0651 8.27718 43.1592C8.64432 43.4792 8.98718 43.2892 9.16289 43.1492C9.30432 45.0292 9.70861 49.8592 10.2886 52.2092C10.5062 53.1402 10.7581 53.6027 11.0129 53.5392C11.9986 53.1792 12.43 43.5392 12.5372 40.6192C12.6286 40.5292 12.7657 40.3792 12.9243 40.1092C12.8097 41.3419 12.7505 42.7867 12.7543 44.2572C12.7582 45.7277 12.8248 47.1564 12.9458 48.3592C13.0413 49.3165 13.1679 50.1018 13.3151 50.651C13.4624 51.2003 13.6261 51.4977 13.7929 51.5192C13.8686 51.5192 13.9558 51.4192 14.0472 51.2192C13.99 51.7692 13.9472 52.2892 13.9215 52.7992C13.8336 54.5815 13.8463 56.5314 13.9569 58.2505C14.0675 59.9697 14.2676 61.3286 14.5165 62.0497C14.7654 62.7708 15.0442 62.7997 15.296 62.1305C15.5478 61.4614 15.7536 60.1447 15.8715 58.4492L15.92 59.0692C15.8186 60.5492 15.3772 68.0292 16.71 71.4292C17.6772 73.8892 18.6315 70.2792 18.6386 70.2592C18.6386 70.2592 18.3429 60.7792 17.2872 57.7092C17.4733 56.9801 17.6235 55.8729 17.7179 54.5338C17.8123 53.1948 17.8464 51.6868 17.8158 50.2092C17.7967 49.2482 17.7507 48.3231 17.6803 47.4872C17.6099 46.6514 17.5166 45.9213 17.4058 45.3392C17.3348 44.9929 17.2567 44.7232 17.1743 44.5392C17.2658 44.3292 17.3472 44.0892 17.41 43.7792C17.6396 42.652 17.7959 40.9325 17.8444 38.999C17.8929 37.0655 17.8296 35.0764 17.6686 33.4692C17.5076 31.862 17.2619 30.7683 16.9857 30.4289C16.7095 30.0895 16.4254 30.532 16.1958 31.6592C16.1343 31.9592 16.0743 32.4192 16.0158 32.9592C16.0158 32.2792 16.0086 31.6592 15.9872 31.1492C15.947 30.2189 15.8808 29.3537 15.7926 28.6036C15.7043 27.8535 15.5956 27.2334 15.4729 26.7792C15.3502 26.3197 15.2156 26.0353 15.0771 25.9426C14.9385 25.8499 14.7987 25.9507 14.6658 26.2392ZM14.0829 37.0792C14.0486 36.9946 14.0138 36.9211 13.9786 36.8592L14.0358 36.5592C14.05 36.7292 14.0643 36.8992 14.0829 37.0792ZM16.1329 57.1592L16.2015 57.4892C16.15 57.6592 16.1058 57.8392 16.0686 58.0092C16.0215 57.4092 15.9829 56.8592 15.9543 56.3592C15.9572 56.1892 15.9586 56.0092 15.9586 55.8292C16.0068 56.3315 16.0656 56.7799 16.1329 57.1592ZM3.53432 39.9992L3.51718 39.6792L3.54575 39.8292L3.53432 39.9992Z" fill="var(--fill-0, black)" fill-opacity="0.2"/>
</svg>
