<svg preserveAspectRatio="none" width="100%" height="100%" overflow="visible" style="display: block;" viewBox="0 0 9.14286 12" fill="none" xmlns="http://www.w3.org/2000/svg">
<path id="Vector" d="M1.71429 6C1.71429 7.5913 1.62398 9.11742 1.46323 10.2426C1.30249 11.3679 1.08447 12 0.857143 12C0.629814 12 0.411797 11.3679 0.251051 10.2426C0.0903058 9.11742 0 7.5913 0 6C0 4.4087 0.0903058 2.88258 0.251051 1.75736C0.411797 0.632141 0.629814 0 0.857143 0C1.08447 0 1.30249 0.632141 1.46323 1.75736C1.62398 2.88258 1.71429 4.4087 1.71429 6ZM9.14286 6C9.14286 7.5913 9.05255 9.11742 8.89181 10.2426C8.73106 11.3679 8.51304 12 8.28571 12C8.05839 12 7.84037 11.3679 7.67962 10.2426C7.51888 9.11742 7.42857 7.5913 7.42857 6C7.42857 4.4087 7.51888 2.88258 7.67962 1.75736C7.84037 0.632141 8.05839 0 8.28571 0C8.51304 0 8.73106 0.632141 8.89181 1.75736C9.05255 2.88258 9.14286 4.4087 9.14286 6Z" fill="var(--fill-0, black)" fill-opacity="0.7"/>
</svg>
