<svg preserveAspectRatio="none" width="100%" height="100%" overflow="visible" style="display: block;" viewBox="0 0 13.1562 14" fill="none" xmlns="http://www.w3.org/2000/svg">
<g id="Icon">
<path id="Vector" d="M8.22266 1.51823H3.28906C2.99829 1.51823 2.71943 1.63374 2.51382 1.83934C2.30822 2.04495 2.19271 2.32381 2.19271 2.61458V11.3854C2.19271 11.6762 2.30822 11.955 2.51382 12.1607C2.71943 12.3663 2.99829 12.4818 3.28906 12.4818H9.86719C10.158 12.4818 10.4368 12.3663 10.6424 12.1607C10.848 11.955 10.9635 11.6762 10.9635 11.3854V4.25911L8.22266 1.51823Z" stroke="var(--stroke-0, #717182)" stroke-width="1.09635" stroke-linecap="round" stroke-linejoin="round"/>
<path id="Vector_2" d="M7.67448 1.51823V3.71094C7.67448 4.00171 7.78999 4.28057 7.99559 4.48618C8.2012 4.69178 8.48006 4.80729 8.77083 4.80729H10.9635" stroke="var(--stroke-0, #717182)" stroke-width="1.09635" stroke-linecap="round" stroke-linejoin="round"/>
<path id="Vector_3" d="M5.48177 7C5.33639 7 5.19695 7.05775 5.09415 7.16056C4.99135 7.26336 4.93359 7.40279 4.93359 7.54818V8.09635C4.93359 8.24174 4.87584 8.38117 4.77304 8.48397C4.67023 8.58678 4.5308 8.64453 4.38542 8.64453C4.5308 8.64453 4.67023 8.70229 4.77304 8.80509C4.87584 8.90789 4.93359 9.04732 4.93359 9.19271V9.74089C4.93359 9.88627 4.99135 10.0257 5.09415 10.1285C5.19695 10.2313 5.33639 10.2891 5.48177 10.2891" stroke="var(--stroke-0, #717182)" stroke-width="1.09635" stroke-linecap="round" stroke-linejoin="round"/>
<path id="Vector_4" d="M7.67448 10.2891C7.81986 10.2891 7.9593 10.2313 8.0621 10.1285C8.1649 10.0257 8.22266 9.88627 8.22266 9.74089V9.19271C8.22266 9.04732 8.28041 8.90789 8.38321 8.80509C8.48602 8.70229 8.62545 8.64453 8.77083 8.64453C8.62545 8.64453 8.48602 8.58678 8.38321 8.48397C8.28041 8.38117 8.22266 8.24174 8.22266 8.09635V7.54818C8.22266 7.40279 8.1649 7.26336 8.0621 7.16056C7.9593 7.05775 7.81986 7 7.67448 7" stroke="var(--stroke-0, #717182)" stroke-width="1.09635" stroke-linecap="round" stroke-linejoin="round"/>
</g>
</svg>
