<svg preserveAspectRatio="none" width="100%" height="100%" overflow="visible" style="display: block;" viewBox="0 0 5.59354 39.1536" fill="none" xmlns="http://www.w3.org/2000/svg">
<path id="Vector" d="M4.30131 32.6758L4.33702 30.3558L4.66845 30.0958C4.86321 29.9625 5.04834 29.4387 5.20164 28.5873C5.35494 27.736 5.4699 26.5931 5.53273 25.2958C5.60826 23.8241 5.61358 22.2206 5.5479 20.726C5.48222 19.2313 5.34908 17.926 5.16845 17.0058L4.90131 15.6258L5.03416 13.4958C5.20988 10.6958 5.12702 7.59581 4.81702 5.43581C4.67068 4.38479 4.48163 3.67497 4.2756 3.40299C4.06956 3.13101 3.85656 3.31007 3.66559 3.91581L3.36131 4.84581L3.16416 2.96581C3.03236 1.70444 2.8458 0.775449 2.63234 0.317637C2.41889 -0.140174 2.19 -0.102227 1.97988 0.425807C1.59559 1.36581 1.33845 3.62581 1.29416 6.47581L1.25702 8.79581L0.925591 9.04581C0.730662 9.17992 0.54541 9.70516 0.392093 10.5584C0.238775 11.4117 0.123913 12.5567 0.0613051 13.8558C-0.00504326 15.1401 -0.017843 16.53 0.0243995 17.8633C0.066642 19.1966 0.162184 20.4183 0.299876 21.3858C0.338448 21.6558 0.379877 21.9058 0.424162 22.1458L0.692733 23.5258L0.559876 25.6558C0.47355 26.9929 0.448083 28.4835 0.486928 29.9254C0.525774 31.3673 0.627052 32.6906 0.77702 33.7158C0.923472 34.7656 1.11252 35.4745 1.3185 35.7464C1.52449 36.0184 1.73743 35.8401 1.92845 35.2358L2.23273 34.3058L2.42988 36.1858C2.56152 37.4484 2.74808 38.3784 2.96159 38.8364C3.1751 39.2943 3.40407 39.2555 3.61416 38.7258C3.79949 38.286 3.96276 37.4812 4.08438 36.4081C4.20601 35.335 4.28083 34.0391 4.29988 32.6758H4.30131Z" fill="var(--fill-0, #FDB599)"/>
</svg>
