<svg preserveAspectRatio="none" width="100%" height="100%" overflow="visible" style="display: block;" viewBox="0 0 13.9583 14" fill="none" xmlns="http://www.w3.org/2000/svg">
<g id="Icon">
<path id="Vector" d="M3.48958 1.76562V8.74479" stroke="var(--stroke-0, #717182)" stroke-width="1.16319" stroke-linecap="round" stroke-linejoin="round"/>
<path id="Vector_2" d="M10.4688 5.25521C11.4324 5.25521 12.2135 4.47404 12.2135 3.51042C12.2135 2.54679 11.4324 1.76562 10.4688 1.76562C9.50513 1.76562 8.72396 2.54679 8.72396 3.51042C8.72396 4.47404 9.50513 5.25521 10.4688 5.25521Z" stroke="var(--stroke-0, #717182)" stroke-width="1.16319" stroke-linecap="round" stroke-linejoin="round"/>
<path id="Vector_3" d="M3.48958 12.2344C4.45321 12.2344 5.23438 11.4532 5.23438 10.4896C5.23438 9.52596 4.45321 8.74479 3.48958 8.74479C2.52596 8.74479 1.74479 9.52596 1.74479 10.4896C1.74479 11.4532 2.52596 12.2344 3.48958 12.2344Z" stroke="var(--stroke-0, #717182)" stroke-width="1.16319" stroke-linecap="round" stroke-linejoin="round"/>
<path id="Vector_4" d="M10.4688 5.25521C10.4688 6.64345 9.91727 7.97483 8.93564 8.95647C7.954 9.93811 6.62262 10.4896 5.23438 10.4896" stroke="var(--stroke-0, #717182)" stroke-width="1.16319" stroke-linecap="round" stroke-linejoin="round"/>
</g>
</svg>
