<svg preserveAspectRatio="none" width="100%" height="100%" overflow="visible" style="display: block;" viewBox="0 0 12.5728 18.8294" fill="none" xmlns="http://www.w3.org/2000/svg">
<path id="Vector" d="M0.569273 17.1295C0.783558 7.59953 2.5807 1.09953 3.8807 5.29953C3.91479 5.41189 3.95172 5.47594 3.98936 5.488C4.027 5.50005 4.06461 5.45987 4.10002 5.36977C4.13543 5.27966 4.16795 5.14142 4.1957 4.96299C4.22345 4.78456 4.24588 4.56947 4.26171 4.3301C4.27753 4.09074 4.28644 3.83183 4.28791 3.56827C4.28939 3.30472 4.2834 3.04172 4.27029 2.79444C4.25718 2.54715 4.23722 2.32045 4.21155 2.12739C4.18587 1.93433 4.155 1.77872 4.1207 1.66953C2.47784 -3.63047 0.277844 4.32953 0.0035584 16.5095C-0.00837634 17.0347 0.00997855 17.5715 0.0545854 18.0019C0.0991923 18.4323 0.166397 18.721 0.241416 18.8045C0.316434 18.8881 0.393121 18.7596 0.454606 18.4473C0.516091 18.1351 0.557338 17.6647 0.569273 17.1395V17.1295ZM12.0036 17.1295C11.7893 7.59953 9.99213 1.09953 8.69213 5.29953C8.65804 5.41189 8.62111 5.47594 8.58347 5.488C8.54583 5.50005 8.50822 5.45987 8.47281 5.36977C8.4374 5.27966 8.40488 5.14142 8.37713 4.96299C8.34938 4.78456 8.32695 4.56947 8.31112 4.3301C8.2953 4.09074 8.28639 3.83183 8.28492 3.56827C8.28345 3.30472 8.28944 3.04172 8.30254 2.79444C8.31565 2.54715 8.33561 2.32045 8.36128 2.12739C8.38696 1.93433 8.41783 1.77872 8.45213 1.66953C10.095 -3.63047 12.295 4.32953 12.5693 16.5095C12.5752 16.7695 12.5737 17.0352 12.565 17.2912C12.5562 17.5473 12.5403 17.7888 12.5182 18.0019C12.4962 18.215 12.4683 18.3955 12.4362 18.5333C12.4042 18.671 12.3686 18.7632 12.3314 18.8045C12.2943 18.8459 12.2563 18.8356 12.2197 18.7744C12.1832 18.7131 12.1487 18.6019 12.1182 18.4473C12.0567 18.1351 12.0155 17.6647 12.0036 17.1395V17.1295Z" fill="var(--fill-0, black)" fill-opacity="0.6"/>
</svg>
