<svg preserveAspectRatio="none" width="100%" height="100%" overflow="visible" style="display: block;" viewBox="0 0 11.3229 29.54" fill="none" xmlns="http://www.w3.org/2000/svg">
<path id="Vector" d="M5.66143 29.54C8.78857 29.54 11.3229 17.49 11.3229 2.63C11.3229 2.03 11.32 1.43 11.3114 0.83C11.0257 0.5 10.7357 0.240002 10.44 0.0700016C10.4457 0.420002 10.4471 0.770001 10.4471 1.13C10.4471 12.99 8.30429 22.61 5.66143 22.61C3.01857 22.61 0.875714 12.98 0.875714 1.13C0.875714 0.750001 0.878572 0.37 0.882857 0C0.588572 0.14 0.3 0.36 0.0142855 0.67C0.0042855 1.32 0 1.97 0 2.63C0 17.49 2.53429 29.54 5.66143 29.54Z" fill="var(--fill-0, black)" fill-opacity="0.16"/>
</svg>
