<svg preserveAspectRatio="none" width="100%" height="100%" overflow="visible" style="display: block;" viewBox="0 0 10.1906 29.54" fill="none" xmlns="http://www.w3.org/2000/svg">
<path id="Vector" d="M5.09529 29.54C7.90971 29.54 10.1906 17.49 10.1906 2.63C10.1906 2.03 10.188 1.43 10.1803 0.83C9.92314 0.5 9.66214 0.240002 9.396 0.0700016C9.40114 0.420002 9.40243 0.770001 9.40243 1.13C9.40243 12.99 7.47386 22.61 5.09529 22.61C2.71671 22.61 0.788143 12.98 0.788143 1.13C0.788143 0.750001 0.790714 0.37 0.794572 0C0.529714 0.14 0.27 0.36 0.0128569 0.67C0.00385695 1.32 0 1.97 0 2.63C0 17.49 2.28086 29.54 5.09529 29.54Z" fill="var(--fill-0, black)" fill-opacity="0.16"/>
</svg>
