<svg preserveAspectRatio="none" width="100%" height="100%" overflow="visible" style="display: block;" viewBox="0 0 13.7347 10.0449" fill="none" xmlns="http://www.w3.org/2000/svg">
<path id="Vector" fill-rule="evenodd" clip-rule="evenodd" d="M4.39022 2.46651C3.67594 2.81651 2.97308 2.54651 2.25879 2.33651C1.71165 2.17651 1.15594 1.65651 0.634509 3.34651C0.534509 3.66651 -0.0126342 5.62651 0.00022294 6.69651C0.0102229 7.54651 0.561652 8.89651 0.661652 9.13651C1.18594 10.4265 1.68737 10.0365 2.22594 9.79651C2.88879 9.52651 3.54737 9.72651 4.20737 9.59651C4.65308 9.49651 5.33879 8.96651 5.55879 5.19651C5.62451 4.05651 5.57308 1.77651 5.50737 0.536514C5.48022 0.0365143 5.40451 -0.153485 5.34594 0.136515C5.0587 1.42976 4.73157 2.22507 4.39165 2.45651L4.39022 2.46651ZM9.34451 2.46651C10.0588 2.81651 10.7617 2.54651 11.4759 2.33651C12.0231 2.17651 12.5788 1.65651 13.1002 3.34651C13.2002 3.66651 13.7474 5.62651 13.7345 6.69651C13.7245 7.54651 13.1731 8.89651 13.0731 9.13651C12.5488 10.4265 12.0474 10.0365 11.5088 9.79651C10.8474 9.52651 10.1888 9.72651 9.52879 9.59651C9.08308 9.49651 8.39737 8.96651 8.17737 5.19651C8.11165 4.05651 8.16308 1.77651 8.22879 0.536514C8.25451 0.0365143 8.33165 -0.153485 8.39022 0.136515C8.67746 1.42976 9.00459 2.22507 9.34451 2.45651V2.46651Z" fill="var(--fill-0, black)" fill-opacity="0.6"/>
</svg>
