<svg preserveAspectRatio="none" width="100%" height="100%" overflow="visible" style="display: block;" viewBox="0 0 10.2857 18" fill="none" xmlns="http://www.w3.org/2000/svg">
<path id="Vector" d="M2.07143 17.7L1.28571 12.2L0.5 17.7C0.442857 18.1 0.342857 18.1 0.271429 17.7L0.0428571 16.1C-0.0142857 15.7 -0.0142857 15 0.0428571 14.5L0.828571 9L0.0428571 3.5C-0.0142857 3 -0.0142857 2.3 0.0428571 1.9L0.271429 0.3C0.328571 -0.1 0.428572 -0.1 0.5 0.3L1.28571 5.8L2.07143 0.3C2.12857 -0.1 2.22857 -0.1 2.3 0.3L2.52857 1.9C2.58571 2.3 2.58571 3 2.52857 3.5L1.74286 9L2.52857 14.5C2.58571 14.9 2.58571 15.6 2.52857 16.1L2.3 17.7C2.24286 18.1 2.14286 18.1 2.07143 17.7ZM9.78571 17.7L9 12.2L8.21429 17.7C8.15714 18.1 8.05714 18.1 7.98571 17.7L7.75714 16.1C7.7 15.7 7.7 15 7.75714 14.5L8.54286 9L7.75714 3.5C7.7 3 7.7 2.3 7.75714 1.9L7.98571 0.3C8.04286 -0.1 8.14286 -0.1 8.21429 0.3L9 5.8L9.78571 0.3C9.84286 -0.1 9.94286 -0.1 10.0143 0.3L10.2429 1.9C10.3 2.3 10.3 3 10.2429 3.5L9.45714 9L10.2429 14.5C10.3 14.9 10.3 15.6 10.2429 16.1L10.0143 17.7C9.95714 18.1 9.85714 18.1 9.78571 17.7Z" fill="var(--fill-0, black)" fill-opacity="0.6"/>
</svg>
