<svg preserveAspectRatio="none" width="100%" height="100%" overflow="visible" style="display: block;" viewBox="0 0 19.7143 117.01" fill="none" xmlns="http://www.w3.org/2000/svg">
<path id="Vector" d="M3.23857 0H1.7466e-06V112.91C-0.00018615 113.448 0.014788 113.981 0.044067 114.478C0.0733459 114.976 0.116354 115.428 0.170629 115.809C0.224903 116.189 0.289379 116.492 0.360361 116.698C0.431343 116.904 0.507437 117.01 0.584287 117.01C0.933093 117.01 1.27848 116.529 1.6007 115.594C1.92292 114.659 2.21565 113.288 2.46216 111.561C2.70867 109.834 2.90413 107.783 3.03735 105.526C3.17057 103.27 3.23895 100.852 3.23857 98.41V0ZM19.7143 0H16.4757V112.91C16.4755 113.448 16.4905 113.981 16.5198 114.478C16.5491 114.976 16.5921 115.428 16.6463 115.809C16.7006 116.189 16.7651 116.492 16.8361 116.698C16.9071 116.904 16.9832 117.01 17.06 117.01C17.4089 117.01 17.7544 116.528 18.0767 115.593C18.3991 114.657 18.6919 113.286 18.9384 111.557C19.1849 109.829 19.3803 107.777 19.5135 105.519C19.6466 103.262 19.7149 100.842 19.7143 98.4V0Z" fill="var(--fill-0, #F4F4F4)"/>
</svg>
