<svg preserveAspectRatio="none" width="100%" height="100%" overflow="visible" style="display: block;" viewBox="0 0 12.9896 14" fill="none" xmlns="http://www.w3.org/2000/svg">
<g id="Icon">
<path id="Vector" d="M8.11849 1.58767H3.2474C2.96031 1.58767 2.68498 1.70172 2.48198 1.90472C2.27898 2.10772 2.16493 2.38305 2.16493 2.67014V11.3299C2.16493 11.6169 2.27898 11.8923 2.48198 12.0953C2.68498 12.2983 2.96031 12.4123 3.2474 12.4123H9.74219C10.0293 12.4123 10.3046 12.2983 10.5076 12.0953C10.7106 11.8923 10.8247 11.6169 10.8247 11.3299V4.29384L8.11849 1.58767Z" stroke="var(--stroke-0, #717182)" stroke-width="1.08247" stroke-linecap="round" stroke-linejoin="round"/>
<path id="Vector_2" d="M7.57726 1.58767V3.7526C7.57726 4.03969 7.6913 4.31502 7.8943 4.51802C8.09731 4.72102 8.37263 4.83507 8.65972 4.83507H10.8247" stroke="var(--stroke-0, #717182)" stroke-width="1.08247" stroke-linecap="round" stroke-linejoin="round"/>
<path id="Vector_3" d="M5.41233 7C5.26878 7 5.13112 7.05702 5.02962 7.15852C4.92812 7.26002 4.87109 7.39769 4.87109 7.54123V8.08247C4.87109 8.22601 4.81407 8.36367 4.71257 8.46517C4.61107 8.56668 4.47341 8.6237 4.32986 8.6237C4.47341 8.6237 4.61107 8.68072 4.71257 8.78222C4.81407 8.88372 4.87109 9.02139 4.87109 9.16493V9.70616C4.87109 9.84971 4.92812 9.98737 5.02962 10.0889C5.13112 10.1904 5.26878 10.2474 5.41233 10.2474" stroke="var(--stroke-0, #717182)" stroke-width="1.08247" stroke-linecap="round" stroke-linejoin="round"/>
<path id="Vector_4" d="M7.57726 10.2474C7.7208 10.2474 7.85847 10.1904 7.95997 10.0889C8.06147 9.98737 8.11849 9.84971 8.11849 9.70616V9.16493C8.11849 9.02139 8.17551 8.88372 8.27701 8.78222C8.37851 8.68072 8.51618 8.6237 8.65972 8.6237C8.51618 8.6237 8.37851 8.56668 8.27701 8.46517C8.17551 8.36367 8.11849 8.22601 8.11849 8.08247V7.54123C8.11849 7.39769 8.06147 7.26002 7.95997 7.15852C7.85847 7.05702 7.7208 7 7.57726 7" stroke="var(--stroke-0, #717182)" stroke-width="1.08247" stroke-linecap="round" stroke-linejoin="round"/>
</g>
</svg>
