<svg preserveAspectRatio="none" width="100%" height="100%" overflow="visible" style="display: block;" viewBox="0 0 18.5714 41.0001" fill="none" xmlns="http://www.w3.org/2000/svg">
<path id="Vector" fill-rule="evenodd" clip-rule="evenodd" d="M4.64286 8.3992e-05C1.6 8.3992e-05 0.521429 5.10008 0.421429 5.77008C0.366648 5.76612 0.312292 5.83774 0.261465 5.98083C0.210639 6.12393 0.164336 6.33571 0.125202 6.60407C0.0860685 6.87244 0.0548697 7.19213 0.0333873 7.54491C0.011905 7.89768 0.000559925 8.27662 0 8.66008V11.5401C0 13.1401 0.188571 14.4301 0.421429 14.4301C0.421429 14.4301 1.26571 14.4301 1.26571 17.3101C1.26571 17.7501 1.27571 17.9601 1.29286 17.9901C1.28714 18.8101 1.28571 19.6501 1.28571 20.4901C1.28571 33.3401 2.47286 41.0001 4.46286 41.0001H4.85714C6.96 41.0001 8.42857 32.5701 8.42857 20.5001C8.42857 19.0001 8.42286 17.5001 8.40429 16.0401L8.63 15.2701C8.71286 14.9801 8.80286 14.7701 8.90143 14.6301C9.16571 14.2501 9.46571 14.4101 9.75714 14.9101C9.86143 15.0901 9.93714 15.2601 9.97143 15.3601L10.1686 15.9101C10.1486 17.4101 10.1429 18.9501 10.1429 20.5101C10.1429 33.3401 11.33 41.0001 13.32 41.0001H13.7143C15.8171 41.0001 17.2857 32.5701 17.2857 20.5001C17.2857 18.9601 17.28 17.4301 17.26 15.9401C17.5086 14.4301 18.1486 14.4301 18.1486 14.4301C18.2035 14.4354 18.258 14.3647 18.309 14.2222C18.36 14.0797 18.4064 13.8682 18.4457 13.5997C18.485 13.3312 18.5163 13.011 18.5379 12.6576C18.5595 12.3042 18.5709 11.9244 18.5714 11.5401V8.66008C18.5714 7.06008 18.3829 5.77008 18.1486 5.77008C18.05 5.10008 16.97 8.3992e-05 13.9286 8.3992e-05H13.5043C13.2471 8.3992e-05 13.0129 0.0700848 12.7943 0.200085C11.4314 0.740085 10.6971 2.35009 9.94857 4.90009C9.73813 5.39723 9.51895 5.68996 9.29714 5.77008C9.06302 5.70026 8.83158 5.39375 8.61 4.86008L8.55 4.66008V4.65009C7.84429 2.23009 7.34571 0.520082 5.58143 0.100082C5.41018 0.031441 5.23867 -0.00190527 5.06714 8.3992e-05H4.64286ZM1.85714 21.5001C1.85714 12.8401 1.85714 6.00008 4.62714 6.00008H5.08714C7.85714 6.00008 7.85714 12.8401 7.85714 21.5001C7.85714 30.6301 6.62286 37.0001 4.85714 37.0001H4.42429C2.30286 37.0001 1.85714 28.5701 1.85714 21.5001ZM10.7143 21.5001C10.7143 12.8401 10.7143 6.00008 13.4843 6.00008H13.9443C16.7143 6.00008 16.7143 12.8401 16.7143 21.5001C16.7143 30.6301 15.48 37.0001 13.7143 37.0001H13.2814C11.16 37.0001 10.7143 28.5701 10.7143 21.5001Z" fill="var(--fill-0, #E6E6E6)"/>
</svg>
