<svg preserveAspectRatio="none" width="100%" height="100%" overflow="visible" style="display: block;" viewBox="0 0 1.73487 12.5642" fill="none" xmlns="http://www.w3.org/2000/svg">
<path id="Vector" fill-rule="evenodd" clip-rule="evenodd" d="M1.21127 1.8625C1.21915 1.68127 1.22185 1.49096 1.21923 1.30242C1.2166 1.11389 1.20869 0.930818 1.19596 0.763672C1.18322 0.596527 1.16591 0.448579 1.145 0.32827C1.1241 0.207962 1.10002 0.117652 1.07413 0.0624967C1.04824 0.00734149 1.02105 -0.0115774 0.994118 0.00681735C0.967184 0.0252121 0.941032 0.0805607 0.917154 0.169705C0.893276 0.258849 0.872141 0.380042 0.854954 0.526364C0.837767 0.672686 0.824865 0.841272 0.816985 1.0225C0.784128 1.7825 0.849843 5.2025 0.849843 5.2025C0.849843 5.2025 1.17841 2.6225 1.21127 1.8625ZM1.53127 7.6625C1.58621 7.65586 1.63852 7.49674 1.6767 7.22012C1.71487 6.94351 1.73579 6.57206 1.73484 6.1875C1.7339 5.80293 1.71116 5.43675 1.67165 5.16951C1.63213 4.90227 1.57907 4.75587 1.52413 4.7625C1.40984 4.7825 0.966986 6.2825 0.966986 6.2825C0.966986 6.2825 1.41841 7.6825 1.53127 7.6625ZM0.666986 5.64249C0.666986 5.64249 0.418414 2.6625 0.324129 2.2025C0.301898 2.09416 0.276836 2.01753 0.250374 1.97699C0.223913 1.93644 0.19657 1.93278 0.169906 1.96621C0.143242 1.99964 0.11778 2.0695 0.0949733 2.17181C0.0721668 2.27413 0.0524628 2.40688 0.0369856 2.5625C0.0215084 2.71811 0.0105616 2.89354 0.00476992 3.07877C-0.00102177 3.264 -0.00154463 3.45541 0.00323096 3.64206C0.00800654 3.8287 0.0179872 4.00694 0.032603 4.16658C0.0472188 4.32623 0.0661833 4.46415 0.0884142 4.57249C0.181271 5.02249 0.666986 5.64249 0.666986 5.64249ZM1.10556 12.4825C1.13135 12.4217 1.15517 12.3257 1.17562 12.2001C1.19608 12.0744 1.21277 11.9216 1.22473 11.7504C1.23669 11.5793 1.24368 11.3932 1.24529 11.2031C1.2469 11.0129 1.24311 10.8223 1.23413 10.6425C1.19699 9.8925 0.855557 7.39249 0.855557 7.39249C0.855557 7.39249 0.805557 10.8325 0.8427 11.5925C0.851526 11.7722 0.865344 11.9378 0.883358 12.0799C0.901372 12.2221 0.923226 12.3378 0.94766 12.4206C0.972093 12.5033 0.998625 12.5514 1.02572 12.562C1.05282 12.5726 1.07996 12.5456 1.10556 12.4825ZM0.345557 10.5225C0.436986 10.0425 0.669843 7.0025 0.669843 7.0025C0.669843 7.0025 0.188414 7.7325 0.0984142 8.2025C0.0766523 8.31609 0.0583 8.45858 0.0444046 8.62182C0.0305093 8.78506 0.0213437 8.96586 0.0174304 9.1539C0.013517 9.34194 0.0149326 9.53353 0.0215971 9.71774C0.0282615 9.90195 0.040044 10.0752 0.0562716 10.2275C0.0724992 10.3798 0.092854 10.5083 0.116174 10.6056C0.139495 10.7028 0.165323 10.767 0.192186 10.7944C0.219049 10.8218 0.24642 10.8119 0.272735 10.7652C0.29905 10.7186 0.323796 10.6361 0.345557 10.5225Z" fill="var(--fill-0, white)"/>
</svg>
