<svg preserveAspectRatio="none" width="100%" height="100%" overflow="visible" style="display: block;" viewBox="0 0 10.2858 14.0017" fill="none" xmlns="http://www.w3.org/2000/svg">
<path id="Vector" d="M1.41426 0C0.791971 0 0.257114 2.65 0.020543 6.45C-0.0488856 7.55 0.0706859 8.3 0.185114 7.57C0.543652 5.38184 0.989586 4.24223 1.44511 4.35C1.36768 5.1352 1.31641 6.05718 1.29589 7.03381C1.27536 8.01044 1.28621 9.01139 1.32747 9.9475C1.36874 10.8836 1.43912 11.7258 1.53237 12.3991C1.62562 13.0723 1.73883 13.5558 1.86192 13.8063C1.98501 14.0568 2.11415 14.0666 2.23785 13.8349C2.36154 13.6032 2.47595 13.1371 2.57088 12.4782C2.6658 11.8193 2.7383 10.988 2.78191 10.0583C2.82552 9.12867 2.83889 8.12957 2.82083 7.15C2.82173 6.89797 2.81649 6.6469 2.8054 6.41L2.78611 6.03C2.74369 5.07883 2.67118 4.22598 2.57526 3.55C2.3014 1.32 1.86426 0 1.41426 0ZM8.8714 0C8.24911 0 7.71426 2.65 7.47769 6.45C7.40826 7.55 7.52783 8.3 7.64226 7.57C8.00079 5.38184 8.44673 4.24223 8.90226 4.35C8.82482 5.1352 8.77356 6.05718 8.75303 7.03381C8.7325 8.01044 8.74336 9.01139 8.78462 9.9475C8.82588 10.8836 8.89627 11.7258 8.98952 12.3991C9.08276 13.0723 9.19597 13.5558 9.31906 13.8063C9.44215 14.0568 9.57129 14.0666 9.69499 13.8349C9.81869 13.6032 9.93309 13.1371 10.028 12.4782C10.1229 11.8193 10.1954 10.988 10.2391 10.0583C10.2827 9.12867 10.296 8.12957 10.278 7.15C10.2789 6.89797 10.2736 6.6469 10.2625 6.41L10.2433 6.03C10.2008 5.07883 10.1283 4.22598 10.0324 3.55C9.75854 1.32 9.3214 0 8.8714 0Z" fill="var(--fill-0, black)" fill-opacity="0.6"/>
</svg>
