<svg preserveAspectRatio="none" width="100%" height="100%" overflow="visible" style="display: block;" viewBox="0 0 14 14" fill="none" xmlns="http://www.w3.org/2000/svg">
<g id="Icon">
<path id="Vector" d="M8.75 1.16667H3.5C3.19058 1.16667 2.89383 1.28958 2.67504 1.50838C2.45625 1.72717 2.33333 2.02391 2.33333 2.33333V11.6667C2.33333 11.9761 2.45625 12.2728 2.67504 12.4916C2.89383 12.7104 3.19058 12.8333 3.5 12.8333H10.5C10.8094 12.8333 11.1062 12.7104 11.325 12.4916C11.5437 12.2728 11.6667 11.9761 11.6667 11.6667V4.08333L8.75 1.16667Z" stroke="var(--stroke-0, #717182)" stroke-width="1.16667" stroke-linecap="round" stroke-linejoin="round"/>
<path id="Vector_2" d="M8.16667 1.16667V3.5C8.16667 3.80942 8.28958 4.10617 8.50838 4.32496C8.72717 4.54375 9.02391 4.66667 9.33333 4.66667H11.6667" stroke="var(--stroke-0, #717182)" stroke-width="1.16667" stroke-linecap="round" stroke-linejoin="round"/>
<path id="Vector_3" d="M5.83333 7C5.67862 7 5.53025 7.06146 5.42085 7.17085C5.31146 7.28025 5.25 7.42862 5.25 7.58333V8.16667C5.25 8.32138 5.18854 8.46975 5.07915 8.57915C4.96975 8.68854 4.82138 8.75 4.66667 8.75C4.82138 8.75 4.96975 8.81146 5.07915 8.92085C5.18854 9.03025 5.25 9.17862 5.25 9.33333V9.91667C5.25 10.0714 5.31146 10.2197 5.42085 10.3291C5.53025 10.4385 5.67862 10.5 5.83333 10.5" stroke="var(--stroke-0, #717182)" stroke-width="1.16667" stroke-linecap="round" stroke-linejoin="round"/>
<path id="Vector_4" d="M8.16667 10.5C8.32138 10.5 8.46975 10.4385 8.57915 10.3291C8.68854 10.2197 8.75 10.0714 8.75 9.91667V9.33333C8.75 9.17862 8.81146 9.03025 8.92085 8.92085C9.03025 8.81146 9.17862 8.75 9.33333 8.75C9.17862 8.75 9.03025 8.68854 8.92085 8.57915C8.81146 8.46975 8.75 8.32138 8.75 8.16667V7.58333C8.75 7.42862 8.68854 7.28025 8.57915 7.17085C8.46975 7.06146 8.32138 7 8.16667 7" stroke="var(--stroke-0, #717182)" stroke-width="1.16667" stroke-linecap="round" stroke-linejoin="round"/>
</g>
</svg>
