<svg preserveAspectRatio="none" width="100%" height="100%" overflow="visible" style="display: block;" viewBox="0 0 12.5925 13.0625" fill="none" xmlns="http://www.w3.org/2000/svg">
<path id="Vector" d="M0.526228 8.2425C1.13194 2.4825 1.50909 2.7625 2.42766 7.6225L2.52337 8.1225C3.21194 11.7925 3.53909 13.0625 4.01051 13.0625C4.08629 13.0625 4.15896 12.8518 4.21254 12.4767C4.26613 12.1016 4.29623 11.5929 4.29623 11.0625C4.29623 10.5321 4.26613 10.0234 4.21254 9.64829C4.15896 9.27322 4.08629 9.0625 4.01051 9.0625C3.7148 9.0625 3.45337 8.0425 2.86908 4.9425L2.77194 4.4225C2.2348 1.5925 1.92051 0.362504 1.52909 0.0625043C1.00337 -0.337496 0.521942 1.5425 0.0662282 5.8925C0.0412482 6.10232 0.0226723 6.34573 0.0116459 6.60773C0.000619439 6.86973 -0.0026239 7.14476 0.00211581 7.41587C0.00685552 7.68697 0.0194778 7.94841 0.0392045 8.18406C0.0589312 8.41972 0.0853443 8.62459 0.116815 8.78605C0.148286 8.94751 0.184148 9.06214 0.22219 9.12286C0.260232 9.18359 0.299648 9.18913 0.338007 9.13914C0.376367 9.08915 0.412857 8.98469 0.445228 8.8322C0.4776 8.67971 0.505166 8.48242 0.526228 8.2525V8.2425ZM12.0662 8.2425C11.4605 2.4825 11.0834 2.7625 10.1648 7.6225L10.0691 8.1225C9.37909 11.7925 9.05194 13.0625 8.58194 13.0625C8.50617 13.0625 8.43349 12.8518 8.37991 12.4767C8.32633 12.1016 8.29623 11.5929 8.29623 11.0625C8.29623 10.5321 8.32633 10.0234 8.37991 9.64829C8.43349 9.27322 8.50617 9.0625 8.58194 9.0625C8.87766 9.0625 9.13908 8.0425 9.72337 4.9425L9.82051 4.4225C10.3577 1.5925 10.6719 0.352504 11.0634 0.052504C11.5891 -0.347496 12.0705 1.5325 12.5262 5.8825C12.5512 6.09232 12.5698 6.33573 12.5808 6.59773C12.5918 6.85973 12.5951 7.13476 12.5903 7.40587C12.5856 7.67697 12.573 7.93841 12.5533 8.17406C12.5335 8.40972 12.5071 8.61459 12.4756 8.77605C12.4442 8.93751 12.4083 9.05214 12.3703 9.11286C12.3322 9.17359 12.2928 9.17913 12.2544 9.12914C12.2161 9.07915 12.1796 8.97469 12.1472 8.8222C12.1149 8.66971 12.0873 8.47242 12.0662 8.2425Z" fill="var(--fill-0, black)" fill-opacity="0.6"/>
</svg>
