<svg preserveAspectRatio="none" width="100%" height="100%" overflow="visible" style="display: block;" viewBox="0 0 25.7143 82" fill="none" xmlns="http://www.w3.org/2000/svg">
<path id="Vector" d="M8.84314 1.12L8.87143 0C8.49086 0.05 8.1 1 8.1 1L8.046 1.66C5.81963 3.94732 3.77604 12.4505 2.29583 25.5859C0.815613 38.7213 -0.000315457 55.5934 9.14912e-08 73.06V82H9.51429C9.51429 82 8.13857 30.44 8.84057 1.2L8.84314 1.12ZM16.2 82C16.2 82 17.6143 29 16.8429 0C17.2234 0.05 17.6143 1 17.6143 1L17.6683 1.66C19.8947 3.94732 21.9382 12.4505 23.4185 25.5859C24.8987 38.7213 25.7146 55.5934 25.7143 73.06V82H16.2Z" fill="var(--fill-0, #3C4F5C)"/>
</svg>
