<svg preserveAspectRatio="none" width="100%" height="100%" overflow="visible" style="display: block;" viewBox="0 0 7.71753 53.5449" fill="none" xmlns="http://www.w3.org/2000/svg">
<path id="Vector" d="M7.67876 31.4292C7.93876 24.4392 6.82161 19.0092 6.40019 17.2392C6.47161 14.3092 6.63876 4.67917 5.76161 1.12917C4.89019 -2.41083 3.79019 3.32917 3.45876 5.26917L3.35876 4.84917C2.92018 3.07917 1.82019 -0.50083 1.0659 4.61917C0.260186 10.0792 0.7359 18.6192 0.917328 21.3192C0.610185 23.3192 -0.279814 29.9092 0.0873286 36.8992C0.188126 38.8297 0.3849 40.4414 0.641614 41.4392C1.21733 43.7792 2.01304 43.3992 2.3159 43.1392C2.45876 45.0292 2.86304 49.8592 3.44304 52.2092C3.66061 53.1402 3.91249 53.6027 4.16733 53.5392C5.15304 53.1792 5.58447 43.5392 5.69161 40.6192C6.10018 40.2192 7.41876 38.4192 7.68018 31.4192L7.67876 31.4292Z" fill="var(--fill-0, #FF7398)"/>
</svg>
