<svg preserveAspectRatio="none" width="100%" height="100%" overflow="visible" style="display: block;" viewBox="0 0 11.3155 18.8294" fill="none" xmlns="http://www.w3.org/2000/svg">
<path id="Vector" d="M0.512345 17.1295C0.705202 7.59953 2.32263 1.09953 3.49263 5.29953C3.52331 5.41189 3.55655 5.47594 3.59042 5.488C3.6243 5.50005 3.65815 5.45987 3.69002 5.36977C3.72189 5.27966 3.75116 5.14142 3.77613 4.96299C3.8011 4.78456 3.82129 4.56947 3.83554 4.3301C3.84978 4.09074 3.85779 3.83183 3.85912 3.56827C3.86045 3.30472 3.85506 3.04172 3.84326 2.79444C3.83147 2.54715 3.8135 2.32045 3.79039 2.12739C3.76729 1.93433 3.7395 1.77872 3.70863 1.66953C2.23006 -3.63047 0.25006 4.32953 0.00320256 16.5095C-0.00753871 17.0347 0.0089807 17.5715 0.0491269 18.0019C0.0892731 18.4323 0.149757 18.721 0.217274 18.8045C0.284791 18.8881 0.353809 18.7596 0.409145 18.4473C0.464482 18.1351 0.501604 17.6647 0.512345 17.1395V17.1295ZM10.8032 17.1295C10.6103 7.59953 8.99292 1.09953 7.82292 5.29953C7.79224 5.41189 7.759 5.47594 7.72512 5.488C7.69125 5.50005 7.6574 5.45987 7.62553 5.36977C7.59366 5.27966 7.56439 5.14142 7.53942 4.96299C7.51444 4.78456 7.49425 4.56947 7.48001 4.3301C7.46577 4.09074 7.45775 3.83183 7.45643 3.56827C7.4551 3.30472 7.46049 3.04172 7.47229 2.79444C7.48408 2.54715 7.50205 2.32045 7.52516 2.12739C7.54826 1.93433 7.57605 1.77872 7.60692 1.66953C9.08549 -3.63047 11.0655 4.32953 11.3123 16.5095C11.3177 16.7695 11.3163 17.0352 11.3085 17.2912C11.3006 17.5473 11.2863 17.7888 11.2664 18.0019C11.2465 18.215 11.2215 18.3955 11.1926 18.5333C11.1638 18.671 11.1317 18.7632 11.0983 18.8045C11.0648 18.8459 11.0307 18.8356 10.9978 18.7744C10.9648 18.7131 10.9338 18.6019 10.9064 18.4473C10.8511 18.1351 10.8139 17.6647 10.8032 17.1395V17.1295Z" fill="var(--fill-0, black)" fill-opacity="0.6"/>
</svg>
