<svg preserveAspectRatio="none" width="100%" height="100%" overflow="visible" style="display: block;" viewBox="0 0 20 165" fill="none" xmlns="http://www.w3.org/2000/svg">
<path id="Vector" d="M0 44C0 32.3305 0.662243 21.1389 1.84104 12.8873C3.01984 4.6357 4.61864 0 6.28571 0H13.7143C14.5397 0 15.3571 1.13809 16.1197 3.3493C16.8823 5.56051 17.5753 8.80152 18.159 12.8873C18.7426 16.9731 19.2056 21.8236 19.5215 27.1619C19.8374 32.5003 20 38.2218 20 44V148.6C20 152.95 19.7532 157.121 19.3138 160.197C18.8744 163.272 18.2785 165 17.6571 165C17.3743 165 17.1429 163.38 17.1429 161.4V54H2.85714V148.6C2.85714 152.95 2.61031 157.121 2.17094 160.197C1.73156 163.272 1.13565 165 0.514286 165C0.23 165 0 163.38 0 161.4V44Z" fill="var(--fill-0, #929598)"/>
</svg>
