<svg preserveAspectRatio="none" width="100%" height="100%" overflow="visible" style="display: block;" viewBox="0 0 16 16" fill="none" xmlns="http://www.w3.org/2000/svg">
<g id="Icon">
<path id="Vector" d="M10 1.33333H4C3.64638 1.33333 3.30724 1.47381 3.05719 1.72386C2.80714 1.97391 2.66667 2.31304 2.66667 2.66667V13.3333C2.66667 13.687 2.80714 14.0261 3.05719 14.2761C3.30724 14.5262 3.64638 14.6667 4 14.6667H12C12.3536 14.6667 12.6928 14.5262 12.9428 14.2761C13.1929 14.0261 13.3333 13.687 13.3333 13.3333V4.66667L10 1.33333Z" stroke="var(--stroke-0, #717182)" stroke-width="1.33333" stroke-linecap="round" stroke-linejoin="round"/>
<path id="Vector_2" d="M9.33333 1.33333V4C9.33333 4.35362 9.47381 4.69276 9.72386 4.94281C9.97391 5.19286 10.313 5.33333 10.6667 5.33333H13.3333" stroke="var(--stroke-0, #717182)" stroke-width="1.33333" stroke-linecap="round" stroke-linejoin="round"/>
<path id="Vector_3" d="M6.66667 8C6.48986 8 6.32029 8.07024 6.19526 8.19526C6.07024 8.32029 6 8.48986 6 8.66667V9.33333C6 9.51014 5.92976 9.67971 5.80474 9.80474C5.67971 9.92976 5.51014 10 5.33333 10C5.51014 10 5.67971 10.0702 5.80474 10.1953C5.92976 10.3203 6 10.4899 6 10.6667V11.3333C6 11.5101 6.07024 11.6797 6.19526 11.8047C6.32029 11.9298 6.48986 12 6.66667 12" stroke="var(--stroke-0, #717182)" stroke-width="1.33333" stroke-linecap="round" stroke-linejoin="round"/>
<path id="Vector_4" d="M9.33333 12C9.51014 12 9.67971 11.9298 9.80474 11.8047C9.92976 11.6797 10 11.5101 10 11.3333V10.6667C10 10.4899 10.0702 10.3203 10.1953 10.1953C10.3203 10.0702 10.4899 10 10.6667 10C10.4899 10 10.3203 9.92976 10.1953 9.80474C10.0702 9.67971 10 9.51014 10 9.33333V8.66667C10 8.48986 9.92976 8.32029 9.80474 8.19526C9.67971 8.07024 9.51014 8 9.33333 8" stroke="var(--stroke-0, #717182)" stroke-width="1.33333" stroke-linecap="round" stroke-linejoin="round"/>
</g>
</svg>
