<svg preserveAspectRatio="none" width="100%" height="100%" overflow="visible" style="display: block;" viewBox="0 0 5.10613 36.6929" fill="none" xmlns="http://www.w3.org/2000/svg">
<path id="Vector" d="M4.86016 29.7862C4.94434 29.012 5.00576 28.1287 5.04085 27.1873C5.07595 26.2458 5.08404 25.2651 5.06464 24.3016C5.04525 23.3382 4.99875 22.4113 4.92786 21.5744C4.85696 20.7376 4.76306 20.0074 4.65159 19.4262C4.58059 19.0801 4.50258 18.8104 4.42016 18.6262C4.51159 18.4162 4.59302 18.1762 4.65588 17.8662C4.88548 16.7391 5.04171 15.0196 5.0902 13.0861C5.13869 11.1526 5.07547 9.16344 4.91445 7.55623C4.75342 5.94902 4.50779 4.8554 4.23157 4.51596C3.95536 4.17652 3.67119 4.61906 3.44159 5.74623C3.38016 6.04623 3.32016 6.49623 3.26159 7.04623C3.26159 6.36623 3.25445 5.74623 3.23302 5.23623C3.19283 4.30599 3.12668 3.44078 3.0384 2.69068C2.95012 1.94057 2.84147 1.32046 2.71873 0.866232C2.5341 0.178992 2.32449 -0.109481 2.11642 0.0373021C1.90836 0.184085 1.71119 0.759532 1.54985 1.69085C1.38851 2.62216 1.27026 3.8675 1.21005 5.26934C1.14984 6.67118 1.15038 8.16653 1.21159 9.56623C1.23302 10.0662 1.27445 10.6062 1.32873 11.1662C1.24753 10.9576 1.16228 10.8362 1.07588 10.8062C0.795506 10.7718 0.524659 11.5183 0.322924 12.8817C0.121188 14.2451 0.00508877 16.1136 0.000163322 18.0762C-0.00476213 20.0388 0.101891 21.9347 0.296661 23.3469C0.491431 24.759 0.758361 25.5718 1.03873 25.6062C1.11445 25.6062 1.20159 25.5062 1.29302 25.3062C1.23588 25.8562 1.19302 26.3762 1.16731 26.8862C1.12219 27.8055 1.10338 28.7779 1.11195 29.7481C1.12052 30.7182 1.1563 31.6671 1.21726 32.5404C1.34036 34.3042 1.55852 35.6534 1.82373 36.2912C2.08895 36.9291 2.3795 36.8033 2.63147 35.9416C2.75623 35.5149 2.86777 34.9204 2.95971 34.1919C3.05164 33.4635 3.12219 32.6155 3.16731 31.6962C3.19239 31.1193 3.20492 30.5193 3.20445 29.9162C3.26159 30.4662 3.31873 30.9162 3.37873 31.2462C3.48951 31.8347 3.61589 32.2632 3.75052 32.507C3.88516 32.7508 4.02537 32.8049 4.16302 32.6662C4.30067 32.533 4.43316 32.2098 4.55283 31.7154C4.6725 31.221 4.77696 30.5653 4.86016 29.7862Z" fill="var(--fill-0, #F7D30C)"/>
</svg>
