<svg preserveAspectRatio="none" width="100%" height="100%" overflow="visible" style="display: block;" viewBox="0 0 3.57586 25.954" fill="none" xmlns="http://www.w3.org/2000/svg">
<path id="Vector" d="M0.161466 20.9496C0.10201 20.4057 0.0585828 19.7845 0.0337072 19.1222C0.00883154 18.4598 0.00300272 17.7695 0.0165596 17.0913C0.0301164 16.413 0.062789 15.7604 0.112679 15.1713C0.162569 14.5822 0.228682 14.0683 0.30718 13.6595C0.350037 13.4395 0.407179 13.2596 0.470037 13.0996C0.411312 12.9821 0.355449 12.8034 0.304323 12.5696C0.147486 11.7666 0.0418363 10.5655 0.0100255 9.22365C-0.0217852 7.88185 0.0227756 6.50621 0.134154 5.39168C0.245532 4.27715 0.41486 3.51247 0.605833 3.26157C0.796807 3.01068 0.994222 3.29356 1.15575 4.04955C1.20004 4.25955 1.24147 4.57955 1.28432 4.95955C1.28432 4.48955 1.28861 4.05955 1.30432 3.68955C1.33221 3.03298 1.37849 2.42185 1.44047 1.89179C1.50244 1.36173 1.57888 0.923347 1.66531 0.602216C1.75174 0.281086 1.84644 0.0836294 1.94389 0.0213637C2.04134 -0.0409019 2.13958 0.0332696 2.23289 0.239551C2.32626 0.439417 2.41309 0.766164 2.4884 1.20111C2.56372 1.63605 2.62604 2.17066 2.67182 2.77435C2.71759 3.37805 2.74592 4.03899 2.75517 4.71937C2.76443 5.39975 2.75443 6.08624 2.72575 6.73955C2.71004 7.08955 2.68004 7.46955 2.64147 7.85955C2.70575 7.70955 2.76575 7.61955 2.82004 7.60955C3.01706 7.58568 3.20736 8.11065 3.34908 9.06896C3.49081 10.0273 3.57234 11.3404 3.57575 12.7196C3.57916 14.0987 3.50417 15.4308 3.36726 16.4229C3.23036 17.4149 3.04277 17.9857 2.84575 18.0096C2.79289 18.0096 2.73147 17.9396 2.66718 17.8096C2.70718 18.1796 2.73861 18.5495 2.75575 18.9095C2.79105 19.5609 2.80729 20.2552 2.80352 20.9513C2.79974 21.6475 2.77602 22.3312 2.73377 22.9619C2.69151 23.5926 2.63158 24.1574 2.55754 24.6229C2.4835 25.0883 2.39685 25.4449 2.30274 25.6714C2.20863 25.8979 2.10898 25.9898 2.0097 25.9415C1.91043 25.8932 1.81355 25.7058 1.72482 25.3903C1.63609 25.0749 1.55731 24.6379 1.49318 24.1052C1.42904 23.5725 1.38085 22.9551 1.35147 22.2896C1.33304 21.8853 1.32341 21.4639 1.32289 21.0396C1.28432 21.4196 1.24432 21.7396 1.20147 21.9696C1.12381 22.3842 1.03518 22.6869 0.940703 22.8601C0.846225 23.0334 0.747776 23.0738 0.651055 22.9789C0.554334 22.884 0.461261 22.6558 0.377223 22.3075C0.293185 21.9592 0.219851 21.4976 0.161466 20.9496Z" fill="var(--fill-0, #4ACAD3)"/>
</svg>
