<svg preserveAspectRatio="none" width="100%" height="100%" overflow="visible" style="display: block;" viewBox="0 0 2.50196 17.8728" fill="none" xmlns="http://www.w3.org/2000/svg">
<path id="Vector" fill-rule="evenodd" clip-rule="evenodd" d="M0.76344 2.65934C0.752184 2.40064 0.748317 2.12895 0.752061 1.85979C0.755805 1.59062 0.767086 1.32925 0.78526 1.09061C0.803434 0.851959 0.828144 0.640706 0.857981 0.468909C0.887818 0.297112 0.922198 0.168136 0.959156 0.0893431C0.996113 0.01055 1.03493 -0.0165142 1.07338 0.00969223C1.11183 0.0358987 1.14917 0.114863 1.18326 0.24208C1.21735 0.369296 1.24753 0.54227 1.27207 0.751128C1.29662 0.959987 1.31504 1.20064 1.3263 1.45934C1.37344 2.53934 1.27915 7.39934 1.27915 7.39934C1.27915 7.39934 0.812013 3.73934 0.76487 2.65934H0.76344ZM0.309155 10.9093C0.268887 10.9236 0.228629 10.8798 0.19088 10.7806C0.153131 10.6814 0.118694 10.529 0.0897099 10.3328C0.0607254 10.1366 0.0378107 9.90082 0.0223859 9.64004C0.00696108 9.37927 -0.000643942 9.09909 4.2677e-05 8.81689C0.000729296 8.53469 0.0096927 8.25649 0.0263772 7.99955C0.0430616 7.74261 0.0671119 7.5124 0.0970341 7.32322C0.126956 7.13404 0.162111 6.98992 0.200321 6.89981C0.23853 6.80969 0.278978 6.77549 0.319154 6.79934C0.480583 6.81934 1.11344 8.94934 1.11344 8.94934C1.11344 8.94934 0.470584 10.9193 0.309155 10.9093ZM1.54058 8.02934C1.54058 8.02934 1.89344 3.78934 2.0263 3.13934C2.05777 2.96693 2.09392 2.84119 2.13256 2.7698C2.1712 2.6984 2.21151 2.68284 2.25104 2.72406C2.29057 2.76529 2.32848 2.86243 2.36247 3.00957C2.39645 3.15671 2.42581 3.35076 2.44873 3.5799C2.47165 3.80904 2.48767 4.06846 2.4958 4.34235C2.50393 4.61623 2.50401 4.89884 2.49603 5.17294C2.48805 5.44705 2.47218 5.7069 2.44938 5.93666C2.42659 6.16643 2.39735 6.36128 2.36344 6.50935C2.23058 7.15935 1.54058 8.02934 1.54058 8.02934ZM0.91487 17.7593C0.841878 17.5799 0.781916 17.2065 0.747961 16.7199C0.714006 16.2333 0.70879 15.6727 0.733441 15.1593C0.786298 14.0793 1.27058 10.5293 1.27058 10.5293C1.27058 10.5293 1.34201 15.4193 1.28916 16.4893C1.26354 17.005 1.20974 17.4284 1.13956 17.6665C1.06938 17.9046 0.988564 17.938 0.91487 17.7593ZM1.9963 14.9693C1.86773 14.2893 1.53487 9.96934 1.53487 9.96934C1.53487 9.96934 2.22058 11.0093 2.34916 11.6893C2.38356 11.8414 2.4131 12.0417 2.43588 12.2776C2.45867 12.5136 2.47422 12.7801 2.48155 13.0602C2.48888 13.3404 2.48784 13.6281 2.47848 13.9053C2.46911 14.1825 2.45165 14.4431 2.42717 14.6706C2.40269 14.8981 2.37174 15.0876 2.33627 15.2272C2.3008 15.3667 2.26158 15.4533 2.22109 15.4814C2.1806 15.5094 2.13972 15.4784 2.10103 15.3903C2.06234 15.3022 2.02667 15.1588 1.9963 14.9693Z" fill="var(--fill-0, white)"/>
</svg>
