<svg preserveAspectRatio="none" width="100%" height="100%" overflow="visible" style="display: block;" viewBox="0 0 16 16" fill="none" xmlns="http://www.w3.org/2000/svg">
<g id="Icon" clip-path="url(#clip0_11_311)">
<path id="Vector" d="M13.3333 1.33333H2.66667C1.93029 1.33333 1.33333 1.93029 1.33333 2.66667V5.33333C1.33333 6.06971 1.93029 6.66667 2.66667 6.66667H13.3333C14.0697 6.66667 14.6667 6.06971 14.6667 5.33333V2.66667C14.6667 1.93029 14.0697 1.33333 13.3333 1.33333Z" stroke="var(--stroke-0, #0A0A0A)" stroke-width="1.33333" stroke-linecap="round" stroke-linejoin="round"/>
<path id="Vector_2" d="M13.3333 9.33333H2.66667C1.93029 9.33333 1.33333 9.93029 1.33333 10.6667V13.3333C1.33333 14.0697 1.93029 14.6667 2.66667 14.6667H13.3333C14.0697 14.6667 14.6667 14.0697 14.6667 13.3333V10.6667C14.6667 9.93029 14.0697 9.33333 13.3333 9.33333Z" stroke="var(--stroke-0, #0A0A0A)" stroke-width="1.33333" stroke-linecap="round" stroke-linejoin="round"/>
<path id="Vector_3" d="M4 4H4.00667" stroke="var(--stroke-0, #0A0A0A)" stroke-width="1.33333" stroke-linecap="round" stroke-linejoin="round"/>
<path id="Vector_4" d="M4 12H4.00667" stroke="var(--stroke-0, #0A0A0A)" stroke-width="1.33333" stroke-linecap="round" stroke-linejoin="round"/>
</g>
<defs>
<clipPath id="clip0_11_311">
<rect width="16" height="16" fill="white"/>
</clipPath>
</defs>
</svg>
