<svg preserveAspectRatio="none" width="100%" height="100%" overflow="visible" style="display: block;" viewBox="0 0 28.705 251.046" fill="none" xmlns="http://www.w3.org/2000/svg">
<path id="Vector" d="M3.85714 97.9472C5.40857 75.2472 8.81 66.3472 11.7771 58.5872C13.68 53.6172 15.4043 49.1072 16.3486 41.7272C16.6657 43.7472 17.0271 45.7772 17.4071 47.9272C18.8657 56.1072 20.6014 65.8572 21.2857 82.9472V83.1172C21.6339 83.5297 21.9554 84.6848 22.2062 86.4246C22.457 88.1643 22.625 90.4039 22.6871 92.8372V70.9872C22.6871 69.6872 22.68 68.4172 22.6657 67.1472C23.3143 50.1472 22.2229 29.3672 20.8571 19.9472C19.5029 11.1272 17.6714 7.62716 16.4357 11.4672C14.7786 -6.07284 9.98571 -1.81284 7.14286 12.9472C5.25429 22.7472 3.60143 38.6672 3.16571 58.6972C3.05543 62.0761 2.99984 65.5312 3 68.9972V157.497C2.97143 188.997 1.94286 239.987 0 247.947C8.90857 264.747 10.2757 209.797 9.85714 165.947V165.557C8.59585 161.368 7.513 154.943 6.71609 146.919C5.91917 138.896 5.43592 129.552 5.31428 119.817C4.90869 119.386 4.53861 117.952 4.27124 115.774C4.00387 113.596 3.85695 110.819 3.85714 107.947V97.9472ZM16.7143 165.557C17.9756 161.368 19.0584 154.943 19.8553 146.919C20.6523 138.896 21.1355 129.552 21.2571 119.817C21.6113 119.44 21.9397 118.296 22.1962 116.545C22.4526 114.795 22.6243 112.526 22.6871 110.057V111.417C22.6873 127.248 23.2244 142.853 24.2543 156.947L28.1043 209.657C28.5799 216.111 28.7797 223.388 28.6799 230.617C28.5801 237.846 28.1848 244.72 27.5414 250.417C27.3424 232.332 26.1756 215.439 24.2742 203.116C22.3728 190.792 19.877 183.946 17.2857 183.947H16.7143V165.557Z" fill="var(--fill-0, #D6B370)"/>
</svg>
