<svg preserveAspectRatio="none" width="100%" height="100%" overflow="visible" style="display: block;" viewBox="0 0 18 165" fill="none" xmlns="http://www.w3.org/2000/svg">
<path id="Vector" d="M0 44C0 32.3305 0.596018 21.1389 1.65694 12.8873C2.71786 4.6357 4.15678 0 5.65714 0H12.3429C13.0858 0 13.8214 1.13809 14.5078 3.3493C15.1941 5.56051 15.8177 8.80152 16.3431 12.8873C16.8684 16.9731 17.2851 21.8236 17.5694 27.1619C17.8537 32.5003 18 38.2218 18 44V148.6C18 152.95 17.7778 157.121 17.3824 160.197C16.987 163.272 16.4507 165 15.8914 165C15.6369 165 15.4286 163.38 15.4286 161.4V54H2.57143V148.6C2.57143 152.95 2.34928 157.121 1.95384 160.197C1.55841 163.272 1.02208 165 0.462857 165C0.207 165 0 163.38 0 161.4V44Z" fill="var(--fill-0, #929598)"/>
</svg>
