<svg preserveAspectRatio="none" width="100%" height="100%" overflow="visible" style="display: block;" viewBox="0 0 28.5714 82" fill="none" xmlns="http://www.w3.org/2000/svg">
<path id="Vector" d="M9.82571 1.12L9.85714 0C9.43429 0.05 9 1 9 1L8.94 1.66C6.46626 3.94732 4.1956 12.4505 2.55092 25.5859C0.906237 38.7213 -0.000350508 55.5934 1.01657e-07 73.06V82H10.5714C10.5714 82 9.04286 30.44 9.82286 1.2L9.82571 1.12ZM18 82C18 82 19.5714 29 18.7143 0C19.1371 0.05 19.5714 1 19.5714 1L19.6314 1.66C22.1052 3.94732 24.3758 12.4505 26.0205 25.5859C27.6652 38.7213 28.5718 55.5934 28.5714 73.06V82H18Z" fill="var(--fill-0, #3C4F5C)"/>
</svg>
